<svg viewBox="0 0 330 200" xmlns="http://www.w3.org/2000/svg"><g><g><g><g><g><line x1="80" y1="177" x2="75" y2="177" style="visibility: inherit;" fill="rgb(0, 0, 0)" stroke="rgb(204, 204, 204)" stroke-width="1px"></line><line x1="80" y1="163.3846153846154" x2="75" y2="163.3846153846154" style="visibility: inherit;" fill="rgb(0, 0, 0)" stroke="rgb(204, 204, 204)" stroke-width="1px"></line><line x1="80" y1="149.76923076923077" x2="75" y2="149.76923076923077" style="visibility: inherit;" fill="rgb(0, 0, 0)" stroke="rgb(204, 204, 204)" stroke-width="1px"></line><line x1="80" y1="136.15384615384613" x2="75" y2="136.15384615384613" style="visibility: inherit;" fill="rgb(0, 0, 0)" stroke="rgb(204, 204, 204)" stroke-width="1px"></line><line x1="80" y1="122.53846153846153" x2="75" y2="122.53846153846153" style="visibility: inherit;" fill="rgb(0, 0, 0)" stroke="rgb(204, 204, 204)" stroke-width="1px"></line><line x1="80" y1="108.92307692307693" x2="75" y2="108.92307692307693" style="visibility: inherit;" fill="rgb(0, 0, 0)" stroke="rgb(204, 204, 204)" stroke-width="1px"></line><line x1="80" y1="95.3076923076923" x2="75" y2="95.3076923076923" style="visibility: inherit;" fill="rgb(0, 0, 0)" stroke="rgb(204, 204, 204)" stroke-width="1px"></line><line x1="80" y1="81.6923076923077" x2="75" y2="81.6923076923077" style="visibility: inherit;" fill="rgb(0, 0, 0)" stroke="rgb(204, 204, 204)" stroke-width="1px"></line><line x1="80" y1="68.07692307692307" x2="75" y2="68.07692307692307" style="visibility: inherit;" fill="rgb(0, 0, 0)" stroke="rgb(204, 204, 204)" stroke-width="1px"></line><line x1="80" y1="54.46153846153847" x2="75" y2="54.46153846153847" style="visibility: inherit;" fill="rgb(0, 0, 0)" stroke="rgb(204, 204, 204)" stroke-width="1px"></line><line x1="80" y1="40.84615384615384" x2="75" y2="40.84615384615384" style="visibility: inherit;" fill="rgb(0, 0, 0)" stroke="rgb(204, 204, 204)" stroke-width="1px"></line><line x1="80" y1="27.230769230769234" x2="75" y2="27.230769230769234" style="visibility: inherit;" fill="rgb(0, 0, 0)" stroke="rgb(204, 204, 204)" stroke-width="1px"></line><line x1="80" y1="13.615384615384606" x2="75" y2="13.615384615384606" style="visibility: inherit;" fill="rgb(0, 0, 0)" stroke="rgb(204, 204, 204)" stroke-width="1px"></line><line x1="80" y1="0" x2="75" y2="0" style="visibility: inherit;" fill="rgb(0, 0, 0)" stroke="rgb(204, 204, 204)" stroke-width="1px"></line></g><g transform="translate(70, 0)"><text x="0" y="177" dx="0em" dy="0.3em" style="text-anchor: end; visibility: hidden; font-family: Roboto, sans-serif; font-size: 12px; font-weight: 200;" fill="rgb(33, 33, 33)" stroke="none" stroke-width="1px">-1.2e+3</text><text x="0" y="163.3846153846154" dx="0em" dy="0.3em" style="text-anchor: end; visibility: inherit; font-family: Roboto, sans-serif; font-size: 12px; font-weight: 200;" fill="rgb(33, 33, 33)" stroke="none" stroke-width="1px">-1.1e+3</text><text x="0" y="149.76923076923077" dx="0em" dy="0.3em" style="text-anchor: end; visibility: hidden; font-family: Roboto, sans-serif; font-size: 12px; font-weight: 200;" fill="rgb(33, 33, 33)" stroke="none" stroke-width="1px">-1e+3</text><text x="0" y="136.15384615384613" dx="0em" dy="0.3em" style="text-anchor: end; visibility: inherit; font-family: Roboto, sans-serif; font-size: 12px; font-weight: 200;" fill="rgb(33, 33, 33)" stroke="none" stroke-width="1px">-900</text><text x="0" y="122.53846153846153" dx="0em" dy="0.3em" style="text-anchor: end; visibility: hidden; font-family: Roboto, sans-serif; font-size: 12px; font-weight: 200;" fill="rgb(33, 33, 33)" stroke="none" stroke-width="1px">-800</text><text x="0" y="108.92307692307693" dx="0em" dy="0.3em" style="text-anchor: end; visibility: inherit; font-family: Roboto, sans-serif; font-size: 12px; font-weight: 200;" fill="rgb(33, 33, 33)" stroke="none" stroke-width="1px">-700</text><text x="0" y="95.3076923076923" dx="0em" dy="0.3em" style="text-anchor: end; visibility: hidden; font-family: Roboto, sans-serif; font-size: 12px; font-weight: 200;" fill="rgb(33, 33, 33)" stroke="none" stroke-width="1px">-600</text><text x="0" y="81.6923076923077" dx="0em" dy="0.3em" style="text-anchor: end; visibility: inherit; font-family: Roboto, sans-serif; font-size: 12px; font-weight: 200;" fill="rgb(33, 33, 33)" stroke="none" stroke-width="1px">-500</text><text x="0" y="68.07692307692307" dx="0em" dy="0.3em" style="text-anchor: end; visibility: hidden; font-family: Roboto, sans-serif; font-size: 12px; font-weight: 200;" fill="rgb(33, 33, 33)" stroke="none" stroke-width="1px">-400</text><text x="0" y="54.46153846153847" dx="0em" dy="0.3em" style="text-anchor: end; visibility: inherit; font-family: Roboto, sans-serif; font-size: 12px; font-weight: 200;" fill="rgb(33, 33, 33)" stroke="none" stroke-width="1px">-300</text><text x="0" y="40.84615384615384" dx="0em" dy="0.3em" style="text-anchor: end; visibility: hidden; font-family: Roboto, sans-serif; font-size: 12px; font-weight: 200;" fill="rgb(33, 33, 33)" stroke="none" stroke-width="1px">-200</text><text x="0" y="27.230769230769234" dx="0em" dy="0.3em" style="text-anchor: end; visibility: inherit; font-family: Roboto, sans-serif; font-size: 12px; font-weight: 200;" fill="rgb(33, 33, 33)" stroke="none" stroke-width="1px">-100</text><text x="0" y="13.615384615384606" dx="0em" dy="0.3em" style="text-anchor: end; visibility: hidden; font-family: Roboto, sans-serif; font-size: 12px; font-weight: 200;" fill="rgb(33, 33, 33)" stroke="none" stroke-width="1px">0</text><text x="0" y="0" dx="0em" dy="0.3em" style="text-anchor: end; visibility: hidden; font-family: Roboto, sans-serif; font-size: 12px; font-weight: 200;" fill="rgb(33, 33, 33)" stroke="none" stroke-width="1px">100</text></g><line x1="80" y1="0" x2="80" y2="177" fill="rgb(0, 0, 0)" stroke="rgb(204, 204, 204)" stroke-width="1px"></line></g></g><g transform="translate(80, 0)" clip-path="url(#clip_0)"><clipPath id="clip_0"><rect width="250" height="176"></rect></clipPath><g><g><g><line x1="0" y1="0" x2="0" y2="177" fill="rgb(0, 0, 0)" stroke="rgb(66, 66, 66)" stroke-width="1px" opacity="0.25"></line><line x1="31.25" y1="0" x2="31.25" y2="177" fill="rgb(0, 0, 0)" stroke="rgb(66, 66, 66)" stroke-width="1px" opacity="0.25"></line><line x1="62.5" y1="0" x2="62.5" y2="177" fill="rgb(0, 0, 0)" stroke="rgb(66, 66, 66)" stroke-width="1px" opacity="0.25"></line><line x1="93.75" y1="0" x2="93.75" y2="177" fill="rgb(0, 0, 0)" stroke="rgb(66, 66, 66)" stroke-width="1px" opacity="0.25"></line><line x1="125" y1="0" x2="125" y2="177" fill="rgb(0, 0, 0)" stroke="rgb(66, 66, 66)" stroke-width="1px" opacity="0.25"></line><line x1="156.25" y1="0" x2="156.25" y2="177" fill="rgb(0, 0, 0)" stroke="rgb(66, 66, 66)" stroke-width="1px" opacity="0.25"></line><line x1="187.5" y1="0" x2="187.5" y2="177" fill="rgb(0, 0, 0)" stroke="rgb(66, 66, 66)" stroke-width="1px" opacity="0.25"></line><line x1="218.75" y1="0" x2="218.75" y2="177" fill="rgb(0, 0, 0)" stroke="rgb(66, 66, 66)" stroke-width="1px" opacity="0.25"></line><line x1="250" y1="0" x2="250" y2="177" fill="rgb(0, 0, 0)" stroke="rgb(66, 66, 66)" stroke-width="1px" opacity="0.25"></line></g><g><line x1="0" y1="177" x2="250" y2="177" fill="rgb(0, 0, 0)" stroke="rgb(66, 66, 66)" stroke-width="1px" opacity="0.25"></line><line x1="0" y1="163.3846153846154" x2="250" y2="163.3846153846154" fill="rgb(0, 0, 0)" stroke="rgb(66, 66, 66)" stroke-width="1px" opacity="0.25"></line><line x1="0" y1="149.76923076923077" x2="250" y2="149.76923076923077" fill="rgb(0, 0, 0)" stroke="rgb(66, 66, 66)" stroke-width="1px" opacity="0.25"></line><line x1="0" y1="136.15384615384613" x2="250" y2="136.15384615384613" fill="rgb(0, 0, 0)" stroke="rgb(66, 66, 66)" stroke-width="1px" opacity="0.25"></line><line x1="0" y1="122.53846153846153" x2="250" y2="122.53846153846153" fill="rgb(0, 0, 0)" stroke="rgb(66, 66, 66)" stroke-width="1px" opacity="0.25"></line><line x1="0" y1="108.92307692307693" x2="250" y2="108.92307692307693" fill="rgb(0, 0, 0)" stroke="rgb(66, 66, 66)" stroke-width="1px" opacity="0.25"></line><line x1="0" y1="95.3076923076923" x2="250" y2="95.3076923076923" fill="rgb(0, 0, 0)" stroke="rgb(66, 66, 66)" stroke-width="1px" opacity="0.25"></line><line x1="0" y1="81.6923076923077" x2="250" y2="81.6923076923077" fill="rgb(0, 0, 0)" stroke="rgb(66, 66, 66)" stroke-width="1px" opacity="0.25"></line><line x1="0" y1="68.07692307692307" x2="250" y2="68.07692307692307" fill="rgb(0, 0, 0)" stroke="rgb(66, 66, 66)" stroke-width="1px" opacity="0.25"></line><line x1="0" y1="54.46153846153847" x2="250" y2="54.46153846153847" fill="rgb(0, 0, 0)" stroke="rgb(66, 66, 66)" stroke-width="1px" opacity="0.25"></line><line x1="0" y1="40.84615384615384" x2="250" y2="40.84615384615384" fill="rgb(0, 0, 0)" stroke="rgb(66, 66, 66)" stroke-width="1px" opacity="0.25"></line><line x1="0" y1="27.230769230769234" x2="250" y2="27.230769230769234" fill="rgb(0, 0, 0)" stroke="rgb(66, 66, 66)" stroke-width="1px" opacity="0.25"></line><line x1="0" y1="13.615384615384606" x2="250" y2="13.615384615384606" fill="rgb(0, 0, 0)" stroke="rgb(66, 66, 66)" stroke-width="1px" opacity="0.25"></line><line x1="0" y1="0" x2="250" y2="0" fill="rgb(0, 0, 0)" stroke="rgb(66, 66, 66)" stroke-width="1px" opacity="0.25"></line></g></g></g><g><g><line x1="0" y1="13.615384615384606" x2="250" y2="13.615384615384606" fill="rgb(0, 0, 0)" stroke="rgb(153, 153, 153)" stroke-width="1.5px"></line></g></g><g><g><line x1="31.25" y1="0" x2="31.25" y2="177" fill="rgb(0, 0, 0)" stroke="rgb(153, 153, 153)" stroke-width="1.5px"></line></g></g><g><g><g><g><g><path stroke="rgb(255, 112, 67)" stroke-width="2px" d="M31.25,149.36076923076925L31.875,221.30732793522267L35,188.67296507549398L35.625,160.30263196598526L36.25,159.29435826291143L36.875,139.39438445868586L37.5,121.40162855846806L38.125,135.67692272485664L38.75,128.18298823773003L39.375,122.3667319097784L40,136.17333027022426L40.625,121.68147298463171L41.25,113.05848509752654L41.875,102.83182337191654L42.5,98.05790996881912L43.125,119.46004161558047L43.75,111.65709284067329L44.375,103.54575661330584L45,94.2309204820201L45.625,85.41140388857875L46.25,90.07133766968249L46.875,96.06047463907213L47.5,87.2924945137528L48.125,93.52601325160462L48.75,93.85587176381098L49.375,87.87947674166952L50,80.55484878141876L50.625,73.77797518332514L51.25,71.88308099583956L51.875,65.79158177883406L52.5,60.17466971116429L53.125,59.11659682044893L53.75,63.408182202791984L54.375,57.93416643051423L55,54.549548128487764L55.625,64.5875015922976L56.25,59.76654227823296L56.875,55.20574537874755L57.5,50.39580399268972L58.125,46.37927232445358L58.75,56.12253780430439L59.375,52.20869397228851L60,48.69211745430951L60.625,45.778598674587116L61.25,45.63855222740226L61.875,42.40596002805272L62.5,45.32698984627569L63.125,43.18164267794756L63.75,49.82157917584026L64.375,52.36370950488631L65,47.87614329477439L65.625,44.63179678172906L66.25,41.27680847941775L66.875,46.828367014408876L67.5,43.241214077063276L68.125,39.76862161570571L68.75,54.27768663795509L69.375,50.06917677372982L70,62.765275861926675L70.625,57.57185590697894L71.25,54.20740793695754L71.875,50.45777853631283L72.5,49.59117891336739L73.125,45.6501662820595L73.75,46.25941996926937L74.375,42.61149995549429L75,39.424167941507115L75.625,36.855601372037334L76.25,34.36705837450154L76.875,32.100343771416654L77.5,38.90013293027214L78.125,36.847513059177025L78.75,35.272674404187754L79.375,33.56940909477652L80,31.28752964494418L80.625,29.438218807034286L81.25,27.406228151232373L81.875,34.837612733909744L82.5,35.54750298479442L83.125,32.98630863877251L83.75,31.021732023052138L84.375,33.48853754011798L85,31.215061602315807L85.625,30.149378295639217L86.25,28.563921655265887L86.875,30.309662475645386L87.5,33.52837844046406L88.125,36.91536497047093L88.75,34.36737928309642L89.375,32.91841508946331L90,30.552313302461865L90.625,28.368378173681542L91.25,26.239462788452265L91.875,24.459611991159672L92.5,22.91222050901199L93.125,24.760124464101754L93.75,31.855897028587936L94.375,29.67779892606824L95,36.20006840278279L95.625,33.36970454563325L96.25,31.19000759648658L96.875,29.977143562425773L97.5,42.75982236956624L98.125,40.28104255993985L98.75,50.739815159983934L99.375,46.78225852998304L100,42.93453906682562L100.625,39.444366670142216L101.25,36.64360340132364L101.875,34.06845818281968L102.5,38.85810009638455L103.125,36.76951057618813L103.75,34.67193484233787L104.375,34.18650865361335L105,31.78900303203311L105.625,29.345325606824982L106.25,27.336633362083347L106.875,25.379041828500743L107.5,23.889518754518708L108.125,22.46725617339958L108.75,36.055248773845506L109.375,33.280257595687964L110,31.517998345011403L110.625,29.210349148836674L111.25,27.310465703208116L111.875,28.854651640822745L112.5,26.881415246349484L113.125,24.914887312788682L113.75,23.40370503339223L114.375,22.179795164353706L115,29.69682064578652L115.625,27.707445083101454L116.25,27.51000816076987L116.875,41.23362938104459L117.5,38.62157299580811L118.125,36.70641494433444L118.75,33.9752340233248L119.375,32.90594105018071L120,44.020427049272975L120.625,54.33661777087728L121.25,49.85603187814602L121.875,45.673735510027136L122.5,41.78713045996769L123.125,38.330032214330394L123.75,35.259490064324396L124.375,32.45515605861791L125,30.13548632081355L125.62499999999999,28.905552936969976L126.25,43.78307605103579L126.87499999999999,41.10669128247713L127.5,37.74486803632913L128.125,62.576306116100085L128.75,84.92460004466254L129.375,84.05675537367192L130,77.18961793364757L130.625,72.04396358698273L131.25,65.53395156401199L131.875,87.58648033713307L132.5,107.4337560709482L133.125,125.29630410016681L133.75,141.37259722017936L134.375,155.8412609421005L135,168.86305822209647L135.625,180.58267571760902L137.5,177.8187605567376L138.125,160.59511503810825L138.75,145.86991104795L139.375,131.7730736353806L140,126.410996988378L140.625,115.93474335072733L141.25,108.07188433768003L141.875,98.28584967995693L142.5,90.05026465886013L143.125,84.14954585104L143.75,75.80266814541977L144.375,68.91678591389588L145,63.48195345336105L145.625,58.87652732125976L146.25,54.10533611124631L146.875,50.805187105328834L147.5,46.39182222870027L148.125,43.63156307585819L148.75,39.94917599076288L149.375,35.790873767888165L150,32.94701715515133L150.625,30.687084666701566L151.25,28.258299273371943L151.875,28.278084730676373L152.5,26.52589164013064L153.125,24.594917858656594L153.75,23.29273376383839L154.375,25.170614235244013L155,23.279860502545155L155.625,21.95941291289751L156.25,20.308087005174652L156.875,21.259047535969835L157.5,19.841142781643605L158.125,18.56502850288855L158.75,17.484602575226514L159.375,16.43052693269327L160,14.58324346956983L160.625,17.291226815742938L161.25,21.484796443007156L161.875,21.746239875693846L162.5,23.697077427017895L163.125,23.96875429975485L163.75,22.102878869444766L164.375,20.464437136082015L165,18.9353780376363L165.625,17.613686387546057L166.25,16.383317748646675L166.875,15.357678281365713L167.5,15.30598737630113L168.125,16.634619408015762L168.75,16.25100362103071L169.375,16.382287874321367L170,15.642674471458388L170.625,17.972407024443672L171.25,16.78785862963158L171.875,15.735380458928153L172.5,15.918227028427463L173.125,16.395942787140804L173.75,15.791117739175847L174.375,15.124236734469093L175,14.455966907158055L175.625,14.126831754895807L176.25,14.361610117872907L176.875,14.109987567619122L177.5,13.052988810838526L178.125,12.877766852828819L178.75,13.61868247524886L179.375,12.964814227715557L180,15.807409728053859L180.625,15.95582260140387L181.25,14.93208649510004L181.875,13.942647076350877L182.5,13.065766984093731L183.125,13.188805670300619L183.75,12.455386641727577L184.375,11.740847977550843L185,11.193070872100712L185.625,10.61837916950345L186.25,11.204002791017032L186.875,13.20152558884567L187.5,13.787526876116841L188.125,13.035081880810644L188.75,12.643804461959295L189.375,12.101039400377484L190,10.782012383413816L190.625,12.481349606614192L191.25,12.036522338259694L191.875,11.445562412125085L192.5,11.390236940143279L193.125,10.972828630743813L193.75,10.488238075361169L194.375,10.147414267824717L195,9.704518994887984L195.625,9.373990172321994L196.25,8.967591155089488L196.875,8.901370501118954L197.5,11.333387297162371L198.125,10.717433182830435L198.75,11.048074479932145L199.375,11.073343955015872L200,10.48339417489866L200.625,10.796593218947384L201.25,11.160164666283519L201.875,11.487378968886034L202.5,15.730333379690848L203.125,14.701915426336903L203.75,13.708262345241458L204.375,12.895666879947939L205,15.963023268876746L205.625,14.952182480450432L206.25,15.28142577086701L206.875,16.394667809165032L207.5,15.313431797479183L208.125,14.340319386961928L208.75,13.437287448265655L209.375,12.638174088054424L210,11.864510525402762L210.625,11.249905626708605L211.25,10.669530448653092L211.875,11.33173124994167L212.5,11.587327355716747L213.125,12.157748466298955L213.75,11.527435158130551L214.375,10.905691642317485L215,10.414199401162639L215.625,9.958240999507906L216.25,9.588724591864782L216.875,10.65854444037066L217.5,10.218997688641249L218.125,9.905097919777148L218.75,9.568126589337853" style="fill: none;" fill="none"></path></g></g></g></g><g opacity="0.2"><g><g><g><path stroke="rgb(255, 112, 67)" stroke-width="2px" d="M31.25,149.36076923076925L31.875,286.0592307692308L33.75,224.79L34.375,64.80923076923077L35,99.3923076923077L35.625,27.09461538461539L36.25,154.12615384615384L36.875,29.681538461538462L37.5,15.929999999999994L38.125,223.83692307692309L38.75,79.78615384615385L39.375,83.32615384615384L40,232.00615384615384L40.625,18.10846153846154L41.25,49.83230769230769L41.875,26.14153846153846L42.5,61.54153846153847L43.125,286.0592307692308L43.75,49.96846153846153L44.375,38.53153846153847L45,18.653076923076927L45.625,13.070769230769239L46.25,128.66538461538462L46.875,146.09307692307692L47.5,13.479230769230764L48.125,146.3653846153846L48.75,96.66923076923078L49.375,36.625384615384604L50,17.42769230769231L50.625,15.113076923076925L51.25,55.414615384615374L51.875,12.662307692307694L52.5,11.028461538461535L53.125,49.83230769230769L53.75,101.16230769230769L54.375,9.666923076923078L55,24.643846153846162L55.625,153.44538461538463L56.25,17.019230769230766L56.875,14.70461538461538L57.5,7.624615384615393L58.125,10.62000000000001L58.75,142.96153846153845L59.375,17.291538461538472L60,17.291538461538472L60.625,19.7423076923077L61.25,44.38615384615384L61.875,13.479230769230764L62.5,71.48076923076923L63.125,23.963076923076933L63.75,109.33153846153847L64.375,75.15692307692308L65,7.624615384615393L65.625,15.52153846153847L66.25,11.164615384615377L66.875,96.66923076923078L67.5,11.028461538461535L68.125,8.577692307692304L68.75,184.62461538461537L69.375,12.25384615384615L70,176.86384615384617L70.625,10.892307692307693L71.25,23.963076923076933L71.875,16.746923076923085L72.5,41.79923076923077L73.125,10.211538461538465L73.75,51.73846153846153L74.375,9.803076923076919L75,10.75615384615385L75.625,13.751538461538468L76.25,11.981538461538467L76.875,11.709230769230762L77.5,100.07307692307693L78.125,18.380769230769225L78.75,21.103846153846156L79.375,18.244615384615383L80,10.75615384615385L80.625,12.798461538461536L81.25,9.122307692307691L81.875,101.70692307692308L82.5,41.93538461538461L83.125,9.939230769230761L83.75,13.343076923076923L84.375,55.68692307692308L85,10.75615384615385L85.625,20.55923076923077L86.25,14.296153846153855L86.875,46.02L87.5,62.494615384615386L88.125,67.39615384615384L88.75,11.43692307692308L89.375,19.878461538461544L90,9.258461538461534L90.625,8.713846153846147L91.25,7.080000000000006L91.875,8.441538461538464L92.5,8.986153846153849L93.125,41.39076923076922L93.75,95.71615384615384L94.375,10.075384615384623L95,94.89923076923078L95.625,7.896923076923076L96.25,11.573076923076922L96.875,19.061538461538454L97.5,157.8023076923077L98.125,17.972307692307698L98.75,144.8676923076923L99.375,11.164615384615377L100,8.305384615384622L100.625,8.033076923076917L101.25,11.43692307692308L101.875,10.892307692307693L102.5,81.96461538461539L103.125,17.972307692307698L103.75,15.793846153846152L104.375,29.817692307692305L105,10.211538461538465L105.625,7.35230769230769L106.25,9.258461538461534L106.875,7.760769230769235L107.5,10.483846153846148L108.125,9.666923076923078L108.75,158.34692307692308L109.375,8.305384615384622L110,15.657692307692312L110.625,8.441538461538464L111.25,10.211538461538465L111.875,42.7523076923077L112.5,9.122307692307691L113.125,7.216153846153848L113.75,9.803076923076919L114.375,11.164615384615377L115,97.35000000000001L115.625,9.803076923076919L116.25,25.733076923076915L116.875,164.74615384615385L117.5,15.113076923076925L118.125,19.47L118.75,9.394615384615374L119.375,23.282307692307683L120,144.05076923076925L120.625,147.1823076923077L121.25,9.530769230769236L121.875,8.033076923076917L122.5,6.807692307692303L123.125,7.216153846153848L123.75,7.624615384615393L124.375,7.216153846153848L125,9.258461538461534L125.62499999999999,17.836153846153838L126.25,177.68076923076922L126.87499999999999,17.019230769230766L127.5,7.488461538461531L128.125,286.0592307692308L128.75,286.0592307692308L129.375,76.24615384615385L130,15.385384615384607L130.625,25.733076923076915L131.25,6.943846153846145L131.875,286.0592307692308L136.875,249.84230769230766L137.5,5.173846153846163L138.125,5.582307692307689L138.75,13.343076923076923L139.375,4.901538461538459L140,78.15230769230769L140.625,21.648461538461543L141.25,37.306153846153855L141.875,10.211538461538465L142.5,15.929999999999994L143.125,31.043076923076917L143.75,0.6807692307692284L144.375,6.943846153846145L145,14.568461538461538L145.625,17.42769230769231L146.25,11.164615384615377L146.875,21.103846153846156L147.5,6.671538461538462L148.125,18.78923076923077L148.75,6.807692307692303L149.375,-1.6338461538461402L150,7.35230769230769L150.625,10.347692307692306L151.25,6.399230769230778L151.875,28.456153846153846L152.5,10.75615384615385L153.125,7.216153846153848L153.75,11.573076923076922L154.375,42.07153846153845L155,6.263076923076916L155.625,10.075384615384623L156.25,5.446153846153846L156.875,29.817692307692305L157.5,7.080000000000006L158.125,7.080000000000006L158.75,7.760769230769235L159.375,6.943846153846145L160,-2.042307692307685L160.625,41.66307692307693L161.25,59.226923076923086L161.875,24.099230769230775L162.5,41.254615384615384L163.125,26.413846153846162L163.75,5.310000000000005L164.375,5.71846153846153L165,5.173846153846163L165.625,5.71846153846153L166.25,5.310000000000005L166.875,6.126923076923075L167.5,14.84076923076922L168.125,28.59230769230769L168.75,12.798461538461536L169.375,17.563846153846153L170,8.986153846153849L170.625,38.94L171.25,6.126923076923075L171.875,6.263076923076916L172.5,17.563846153846153L173.125,20.69538461538461L173.75,10.347692307692306L174.375,9.122307692307691L175,8.441538461538464L175.625,11.164615384615377L176.25,16.47461538461538L176.875,11.845384615384624L177.5,3.540000000000003L178.125,11.300769230769237L178.75,20.286923076923067L179.375,7.080000000000006L180,41.39076923076922L180.625,17.291538461538472L181.25,5.71846153846153L181.875,5.037692307692302L182.5,5.173846153846163L183.125,14.296153846153855L183.75,5.854615384615391L184.375,5.310000000000005L185,6.263076923076916L185.625,5.446153846153846L186.25,16.47461538461538L186.875,31.17923076923076L187.5,19.061538461538454L188.125,6.263076923076916L188.75,9.122307692307691L189.375,7.216153846153848L190,-1.0892307692307732L190.625,27.77538461538462L191.25,8.033076923076917L191.875,6.126923076923075L192.5,10.892307692307693L193.125,7.216153846153848L193.75,6.126923076923075L194.375,7.080000000000006L195,5.71846153846153L195.625,6.399230769230778L196.25,5.310000000000005L196.875,8.305384615384622L197.5,33.221538461538465L198.125,5.173846153846163L198.75,14.02384615384615L199.375,11.300769230769237L200,5.173846153846163L200.625,13.615384615384606L201.25,14.432307692307695L201.875,14.432307692307695L202.5,53.91692307692308L203.125,5.446153846153846L203.75,4.765384615384618L204.375,5.582307692307689L205,43.56923076923077L205.625,5.854615384615391L206.25,18.244615384615383L206.875,26.413846153846162L207.5,5.582307692307689L208.125,5.582307692307689L208.75,5.310000000000005L209.375,5.446153846153846L210,4.901538461538459L210.625,5.71846153846153L211.25,5.446153846153846L211.875,17.291538461538472L212.5,13.88769230769231L213.125,17.291538461538472L213.75,5.854615384615391L214.375,5.310000000000005L215,5.990769230769233L215.625,5.854615384615391L216.25,6.263076923076916L216.875,20.286923076923067L217.5,6.263076923076916L218.125,7.080000000000006L218.75,6.535384615384619" style="fill: none;" fill="none"></path></g></g></g></g></g></g><g transform="translate(80, 177)" clip-path="url(#clip_1)"><clipPath id="clip_1"><rect width="250" height="22"></rect></clipPath><g><g><line x1="0" y1="0" x2="0" y2="5" style="visibility: inherit;" fill="rgb(0, 0, 0)" stroke="rgb(204, 204, 204)" stroke-width="1px"></line><line x1="31.25" y1="0" x2="31.25" y2="5" style="visibility: inherit;" fill="rgb(0, 0, 0)" stroke="rgb(204, 204, 204)" stroke-width="1px"></line><line x1="62.5" y1="0" x2="62.5" y2="5" style="visibility: inherit;" fill="rgb(0, 0, 0)" stroke="rgb(204, 204, 204)" stroke-width="1px"></line><line x1="93.75" y1="0" x2="93.75" y2="5" style="visibility: inherit;" fill="rgb(0, 0, 0)" stroke="rgb(204, 204, 204)" stroke-width="1px"></line><line x1="125" y1="0" x2="125" y2="5" style="visibility: inherit;" fill="rgb(0, 0, 0)" stroke="rgb(204, 204, 204)" stroke-width="1px"></line><line x1="156.25" y1="0" x2="156.25" y2="5" style="visibility: inherit;" fill="rgb(0, 0, 0)" stroke="rgb(204, 204, 204)" stroke-width="1px"></line><line x1="187.5" y1="0" x2="187.5" y2="5" style="visibility: inherit;" fill="rgb(0, 0, 0)" stroke="rgb(204, 204, 204)" stroke-width="1px"></line><line x1="218.75" y1="0" x2="218.75" y2="5" style="visibility: inherit;" fill="rgb(0, 0, 0)" stroke="rgb(204, 204, 204)" stroke-width="1px"></line><line x1="250" y1="0" x2="250" y2="5" style="visibility: inherit;" fill="rgb(0, 0, 0)" stroke="rgb(204, 204, 204)" stroke-width="1px"></line></g><g transform="translate(0, 8)"><text x="0" y="0" dx="0em" dy="0.95em" style="text-anchor: middle; visibility: hidden; font-family: Roboto, sans-serif; font-size: 12px; font-weight: 200;" fill="rgb(33, 33, 33)" stroke="none" stroke-width="1px">-50</text><text x="31.25" y="0" dx="0em" dy="0.95em" style="text-anchor: middle; visibility: inherit; font-family: Roboto, sans-serif; font-size: 12px; font-weight: 200;" fill="rgb(33, 33, 33)" stroke="none" stroke-width="1px">0</text><text x="62.5" y="0" dx="0em" dy="0.95em" style="text-anchor: middle; visibility: inherit; font-family: Roboto, sans-serif; font-size: 12px; font-weight: 200;" fill="rgb(33, 33, 33)" stroke="none" stroke-width="1px">50</text><text x="93.75" y="0" dx="0em" dy="0.95em" style="text-anchor: middle; visibility: inherit; font-family: Roboto, sans-serif; font-size: 12px; font-weight: 200;" fill="rgb(33, 33, 33)" stroke="none" stroke-width="1px">100</text><text x="125" y="0" dx="0em" dy="0.95em" style="text-anchor: middle; visibility: inherit; font-family: Roboto, sans-serif; font-size: 12px; font-weight: 200;" fill="rgb(33, 33, 33)" stroke="none" stroke-width="1px">150</text><text x="156.25" y="0" dx="0em" dy="0.95em" style="text-anchor: middle; visibility: inherit; font-family: Roboto, sans-serif; font-size: 12px; font-weight: 200;" fill="rgb(33, 33, 33)" stroke="none" stroke-width="1px">200</text><text x="187.5" y="0" dx="0em" dy="0.95em" style="text-anchor: middle; visibility: inherit; font-family: Roboto, sans-serif; font-size: 12px; font-weight: 200;" fill="rgb(33, 33, 33)" stroke="none" stroke-width="1px">250</text><text x="218.75" y="0" dx="0em" dy="0.95em" style="text-anchor: middle; visibility: inherit; font-family: Roboto, sans-serif; font-size: 12px; font-weight: 200;" fill="rgb(33, 33, 33)" stroke="none" stroke-width="1px">300</text><text x="250" y="0" dx="0em" dy="0.95em" style="text-anchor: middle; visibility: hidden; font-family: Roboto, sans-serif; font-size: 12px; font-weight: 200;" fill="rgb(33, 33, 33)" stroke="none" stroke-width="1px">350</text></g><line x1="0" y1="0" x2="250" y2="0" fill="rgb(0, 0, 0)" stroke="rgb(204, 204, 204)" stroke-width="1px"></line></g></g></g></g></svg>