<svg viewBox="0 0 330 200" xmlns="http://www.w3.org/2000/svg"><g><g><g><g><g><line x1="80" y1="177" x2="75" y2="177" style="visibility: inherit;" fill="rgb(0, 0, 0)" stroke="rgb(204, 204, 204)" stroke-width="1px"></line><line x1="80" y1="159.3" x2="75" y2="159.3" style="visibility: inherit;" fill="rgb(0, 0, 0)" stroke="rgb(204, 204, 204)" stroke-width="1px"></line><line x1="80" y1="141.6" x2="75" y2="141.6" style="visibility: inherit;" fill="rgb(0, 0, 0)" stroke="rgb(204, 204, 204)" stroke-width="1px"></line><line x1="80" y1="123.89999999999999" x2="75" y2="123.89999999999999" style="visibility: inherit;" fill="rgb(0, 0, 0)" stroke="rgb(204, 204, 204)" stroke-width="1px"></line><line x1="80" y1="106.2" x2="75" y2="106.2" style="visibility: inherit;" fill="rgb(0, 0, 0)" stroke="rgb(204, 204, 204)" stroke-width="1px"></line><line x1="80" y1="88.5" x2="75" y2="88.5" style="visibility: inherit;" fill="rgb(0, 0, 0)" stroke="rgb(204, 204, 204)" stroke-width="1px"></line><line x1="80" y1="70.8" x2="75" y2="70.8" style="visibility: inherit;" fill="rgb(0, 0, 0)" stroke="rgb(204, 204, 204)" stroke-width="1px"></line><line x1="80" y1="53.10000000000001" x2="75" y2="53.10000000000001" style="visibility: inherit;" fill="rgb(0, 0, 0)" stroke="rgb(204, 204, 204)" stroke-width="1px"></line><line x1="80" y1="35.39999999999999" x2="75" y2="35.39999999999999" style="visibility: inherit;" fill="rgb(0, 0, 0)" stroke="rgb(204, 204, 204)" stroke-width="1px"></line><line x1="80" y1="17.699999999999996" x2="75" y2="17.699999999999996" style="visibility: inherit;" fill="rgb(0, 0, 0)" stroke="rgb(204, 204, 204)" stroke-width="1px"></line><line x1="80" y1="0" x2="75" y2="0" style="visibility: inherit;" fill="rgb(0, 0, 0)" stroke="rgb(204, 204, 204)" stroke-width="1px"></line></g><g transform="translate(70, 0)"><text x="0" y="177" dx="0em" dy="0.3em" style="text-anchor: end; visibility: hidden; font-family: Roboto, sans-serif; font-size: 12px; font-weight: 200;" fill="rgb(33, 33, 33)" stroke="none" stroke-width="1px">-1.1e+3</text><text x="0" y="159.3" dx="0em" dy="0.3em" style="text-anchor: end; visibility: inherit; font-family: Roboto, sans-serif; font-size: 12px; font-weight: 200;" fill="rgb(33, 33, 33)" stroke="none" stroke-width="1px">-1e+3</text><text x="0" y="141.6" dx="0em" dy="0.3em" style="text-anchor: end; visibility: hidden; font-family: Roboto, sans-serif; font-size: 12px; font-weight: 200;" fill="rgb(33, 33, 33)" stroke="none" stroke-width="1px">-900</text><text x="0" y="123.89999999999999" dx="0em" dy="0.3em" style="text-anchor: end; visibility: inherit; font-family: Roboto, sans-serif; font-size: 12px; font-weight: 200;" fill="rgb(33, 33, 33)" stroke="none" stroke-width="1px">-800</text><text x="0" y="106.2" dx="0em" dy="0.3em" style="text-anchor: end; visibility: hidden; font-family: Roboto, sans-serif; font-size: 12px; font-weight: 200;" fill="rgb(33, 33, 33)" stroke="none" stroke-width="1px">-700</text><text x="0" y="88.5" dx="0em" dy="0.3em" style="text-anchor: end; visibility: inherit; font-family: Roboto, sans-serif; font-size: 12px; font-weight: 200;" fill="rgb(33, 33, 33)" stroke="none" stroke-width="1px">-600</text><text x="0" y="70.8" dx="0em" dy="0.3em" style="text-anchor: end; visibility: hidden; font-family: Roboto, sans-serif; font-size: 12px; font-weight: 200;" fill="rgb(33, 33, 33)" stroke="none" stroke-width="1px">-500</text><text x="0" y="53.10000000000001" dx="0em" dy="0.3em" style="text-anchor: end; visibility: inherit; font-family: Roboto, sans-serif; font-size: 12px; font-weight: 200;" fill="rgb(33, 33, 33)" stroke="none" stroke-width="1px">-400</text><text x="0" y="35.39999999999999" dx="0em" dy="0.3em" style="text-anchor: end; visibility: hidden; font-family: Roboto, sans-serif; font-size: 12px; font-weight: 200;" fill="rgb(33, 33, 33)" stroke="none" stroke-width="1px">-300</text><text x="0" y="17.699999999999996" dx="0em" dy="0.3em" style="text-anchor: end; visibility: inherit; font-family: Roboto, sans-serif; font-size: 12px; font-weight: 200;" fill="rgb(33, 33, 33)" stroke="none" stroke-width="1px">-200</text><text x="0" y="0" dx="0em" dy="0.3em" style="text-anchor: end; visibility: hidden; font-family: Roboto, sans-serif; font-size: 12px; font-weight: 200;" fill="rgb(33, 33, 33)" stroke="none" stroke-width="1px">-100</text></g><line x1="80" y1="0" x2="80" y2="177" fill="rgb(0, 0, 0)" stroke="rgb(204, 204, 204)" stroke-width="1px"></line></g></g><g transform="translate(80, 0)" clip-path="url(#clip_0)"><clipPath id="clip_0"><rect width="250" height="176"></rect></clipPath><g><g><g><line x1="0" y1="0" x2="0" y2="177" fill="rgb(0, 0, 0)" stroke="rgb(66, 66, 66)" stroke-width="1px" opacity="0.25"></line><line x1="31.25" y1="0" x2="31.25" y2="177" fill="rgb(0, 0, 0)" stroke="rgb(66, 66, 66)" stroke-width="1px" opacity="0.25"></line><line x1="62.5" y1="0" x2="62.5" y2="177" fill="rgb(0, 0, 0)" stroke="rgb(66, 66, 66)" stroke-width="1px" opacity="0.25"></line><line x1="93.75" y1="0" x2="93.75" y2="177" fill="rgb(0, 0, 0)" stroke="rgb(66, 66, 66)" stroke-width="1px" opacity="0.25"></line><line x1="125" y1="0" x2="125" y2="177" fill="rgb(0, 0, 0)" stroke="rgb(66, 66, 66)" stroke-width="1px" opacity="0.25"></line><line x1="156.25" y1="0" x2="156.25" y2="177" fill="rgb(0, 0, 0)" stroke="rgb(66, 66, 66)" stroke-width="1px" opacity="0.25"></line><line x1="187.5" y1="0" x2="187.5" y2="177" fill="rgb(0, 0, 0)" stroke="rgb(66, 66, 66)" stroke-width="1px" opacity="0.25"></line><line x1="218.75" y1="0" x2="218.75" y2="177" fill="rgb(0, 0, 0)" stroke="rgb(66, 66, 66)" stroke-width="1px" opacity="0.25"></line><line x1="250" y1="0" x2="250" y2="177" fill="rgb(0, 0, 0)" stroke="rgb(66, 66, 66)" stroke-width="1px" opacity="0.25"></line></g><g><line x1="0" y1="177" x2="250" y2="177" fill="rgb(0, 0, 0)" stroke="rgb(66, 66, 66)" stroke-width="1px" opacity="0.25"></line><line x1="0" y1="159.3" x2="250" y2="159.3" fill="rgb(0, 0, 0)" stroke="rgb(66, 66, 66)" stroke-width="1px" opacity="0.25"></line><line x1="0" y1="141.6" x2="250" y2="141.6" fill="rgb(0, 0, 0)" stroke="rgb(66, 66, 66)" stroke-width="1px" opacity="0.25"></line><line x1="0" y1="123.89999999999999" x2="250" y2="123.89999999999999" fill="rgb(0, 0, 0)" stroke="rgb(66, 66, 66)" stroke-width="1px" opacity="0.25"></line><line x1="0" y1="106.2" x2="250" y2="106.2" fill="rgb(0, 0, 0)" stroke="rgb(66, 66, 66)" stroke-width="1px" opacity="0.25"></line><line x1="0" y1="88.5" x2="250" y2="88.5" fill="rgb(0, 0, 0)" stroke="rgb(66, 66, 66)" stroke-width="1px" opacity="0.25"></line><line x1="0" y1="70.8" x2="250" y2="70.8" fill="rgb(0, 0, 0)" stroke="rgb(66, 66, 66)" stroke-width="1px" opacity="0.25"></line><line x1="0" y1="53.10000000000001" x2="250" y2="53.10000000000001" fill="rgb(0, 0, 0)" stroke="rgb(66, 66, 66)" stroke-width="1px" opacity="0.25"></line><line x1="0" y1="35.39999999999999" x2="250" y2="35.39999999999999" fill="rgb(0, 0, 0)" stroke="rgb(66, 66, 66)" stroke-width="1px" opacity="0.25"></line><line x1="0" y1="17.699999999999996" x2="250" y2="17.699999999999996" fill="rgb(0, 0, 0)" stroke="rgb(66, 66, 66)" stroke-width="1px" opacity="0.25"></line><line x1="0" y1="0" x2="250" y2="0" fill="rgb(0, 0, 0)" stroke="rgb(66, 66, 66)" stroke-width="1px" opacity="0.25"></line></g></g></g><g><g><line x1="0" y1="-17.700000000000017" x2="250" y2="-17.700000000000017" fill="rgb(0, 0, 0)" stroke="rgb(153, 153, 153)" stroke-width="1.5px"></line></g></g><g><g><line x1="31.25" y1="0" x2="31.25" y2="177" fill="rgb(0, 0, 0)" stroke="rgb(153, 153, 153)" stroke-width="1.5px"></line></g></g><g><g><g><g><g><path stroke="rgb(255, 112, 67)" stroke-width="2px" d="M31.25,158.769L31.875,205.53426315789477L41.25,179.16420849566205L41.875,173.77252443296058L42.5,168.55781018149494L43.125,165.19977603834985L43.75,161.67914638222643L44.375,157.9909915918235L45,154.08148145527363L45.625,149.99708596986326L46.25,146.45405193150842L46.875,143.47081249705982L47.5,140.2883025864091L48.125,137.6170889726097L48.75,135.15147375065527L49.375,132.6007269773151L50,129.91232827896255L50.625,127.11654069515117L51.25,124.41191372054593L51.875,121.63151477200435L52.5,118.79712530035196L53.125,116.07634326567222L53.75,113.65030847740773L54.375,111.16776256696997L55,108.70071576380066L55.625,106.68402319056679L56.25,104.62234094569538L56.875,102.52479393772683L57.5,100.38466848337758L58.125,98.22671577673606L58.75,96.44871305087135L59.375,94.64656148997827L60,92.83128899720315L60.625,91.01893527092184L61.25,89.28221684597459L61.875,87.53686413548847L62.5,85.93940934193112L63.125,84.35657045361029L63.75,83.00250513898399L64.375,81.7689054633101L65,80.48402480846077L65.625,79.17764074217268L66.25,77.84720787747641L66.875,76.69254291296016L67.5,75.50541821505679L68.125,74.28870008257792L68.75,73.42600557023428L69.375,72.5123136158464L70,71.89721469448179L70.625,71.20672756546365L71.25,70.47879484469024L71.875,69.70616817786092L72.5,68.94548389803424L73.125,68.13702780260918L73.75,67.36746727356676L74.375,66.55617198976228L75,65.71240992362075L75.625,64.84799712361793L76.25,63.96472295680331L76.875,63.06684125110675L77.5,62.311777581079L78.125,61.54405459176959L78.75,60.77182684315369L79.375,59.9928611026776L80,59.19763028431024L80.625,58.393433951454824L81.25,57.57745241451259L81.875,56.89991886252494L82.5,56.251977860262805L83.125,55.58205205779644L83.75,54.89958809405086L84.375,54.27170500711654L85,53.6261116735991L85.625,52.980892245906695L86.25,52.32830151735909L86.875,51.716501631057845L87.5,51.16548598057122L88.125,50.676110564559686L88.75,50.16384219052832L89.375,49.644173499310604L90,49.10454552026333L90.625,48.54771530065267L91.25,47.974680802008535L91.875,47.390335341654946L92.5,46.797911743533945L93.125,46.2416748163561L93.75,45.788387416736555L94.375,45.31767408551093L95,44.939556432395854L95.625,44.535144495280385L96.25,44.11284055480417L96.875,43.684718635354656L97.5,43.42082361637847L98.125,43.134168372686474L98.75,42.979275490819866L99.375,42.78307967266607L100,42.54738589378738L100.625,42.27688351369994L101.25,41.98000297848246L101.875,41.65969813118566L102.5,41.39957803078754L103.125,41.12142309450318L103.75,40.82536933263444L104.375,40.52943098150951L105,40.212674350579356L105.625,39.87492339686196L106.25,39.521196060014226L106.875,39.15230998619179L107.5,38.773480622618166L108.125,38.38560128506195L108.75,38.14495515385944L109.375,37.88029227753304L110,37.602298261886816L110.625,37.30559849201036L111.25,36.99456827688021L111.875,36.703858988684004L112.5,36.39822938410312L113.125,36.07796045352328L113.75,35.747725230243276L114.375,35.41046762530694L115,35.15047608542267L115.625,34.87569938179385L116.25,34.603327706963654L116.875,34.46443811235674L117.5,34.30420924587395L118.125,34.129323735414424L118.75,33.93239346208929L119.375,33.72889358668848L120,33.62963778115498L120.625,33.62586370543647L121.25,33.583431203840014L121.875,33.505407223060544L122.5,33.3948091313536L123.125,33.25579911147334L123.75,33.092104221814466L124.375,32.90635391824837L125,32.70302025918483L125.62499999999999,32.491673931877706L126.25,32.40930272187607L126.87499999999999,32.305984806131676L127.5,32.176198042932704L128.125,32.25520324438705L128.75,32.519626745244814L129.375,32.775849135257296L130,32.97470023081271L130.625,33.130721249114046L131.25,33.233309437447524L131.875,33.51225638229508L132.5,33.9476364629504L133.125,34.521558213656846L133.75,35.217960367851674L134.375,36.022428298006076L135,36.922026650852345L135.625,37.90515250022977L136.25,38.96139994368912L136.875,40.053744717866124L137.5,40.990914306137455L138.125,41.78926887932806L138.75,42.469043314950305L139.375,43.03623379860857L140,43.55702339078471L140.625,43.99419941555824L141.25,44.367979226733645L141.875,44.66513564884052L142.5,44.897922390633205L143.125,45.08407659124876L143.75,45.20671231655343L144.375,45.277148735986L145,45.30645842611005L145.625,45.30114481309307L146.25,45.2606114565228L146.875,45.195711397706525L147.5,45.099152464699095L148.125,44.9828857256292L148.75,44.84095131534484L149.375,44.67053275512079L150,44.48104141774021L150.625,44.27678883813144L151.25,44.05694087135242L151.875,43.8382091160801L152.5,43.60889603500867L153.125,43.36804279904667L153.75,43.12002818565001L154.375,42.88590864019655L155,42.64101155039899L155.625,42.38923485196855L156.25,42.12858460574195L156.875,41.875969885868095L157.5,41.61620318889574L158.125,41.35031840760282L158.75,41.07967169246222L159.375,40.804528033855036L160,40.51999817348876L160.625,40.25469210605931L161.25,40.01770025744913L161.875,39.78442865388806L162.5,39.56526420031599L163.125,39.34978305306859L163.75,39.12490743021652L164.375,38.89211423964752L165,38.65214878427585L165.625,38.40633813250071L166.25,38.15529705298574L166.875,37.90030913537991L167.5,37.64720686561661L168.125,37.40414230696376L168.75,37.160959738235924L169.375,36.920681278433754L170,36.67820800225978L170.625,36.45137782702104L171.25,36.219744029902934L171.875,35.98410836896731L172.5,35.75158253267138L173.125,35.52382010459114L173.75,35.29463253992519L174.375,35.06367998844041L175,34.83096933822293L175.625,34.59841625815477L176.25,34.36916655433136L176.875,34.14048833273163L177.5,33.90792051141724L178.125,33.67635321307948L178.75,33.4508038719929L179.375,33.22360106352604L180,33.01377472181945L180.625,32.806578499635336L181.25,32.59565906824892L181.875,32.381224539596055L182.5,32.163901905581085L183.125,31.949040206232436L183.75,31.73207097869869L184.375,31.513108827116657L185,31.293047150946872L185.625,31.07175228997716L186.25,30.855292576115293L186.875,30.65096929689657L187.5,30.45136829921308L188.125,30.249539742606615L188.75,30.04735117361885L189.375,29.8440245706608L190,29.63560686396047L190.625,29.43746375568903L191.25,29.23866366155288L191.875,29.038470681017408L192.5,28.839579875122414L193.125,28.640167351171918L193.75,28.43989879568096L194.375,28.239491800328985L195,28.03844030401172L195.625,27.83730084361771L196.25,27.635700321633696L196.875,27.435303166972634L197.5,27.24826285424255L198.125,27.059688085541826L198.75,26.874159737192638L199.375,26.690179411056285L200,26.504778335490144L200.625,26.322279162524556L201.25,26.142895132075264L201.875,25.966425192842284L202.5,25.81135285635832L203.125,25.652680633771773L203.75,25.49058701955226L204.375,25.325934868195166L205,25.176814533536263L205.625,25.024169182477547L206.25,24.874214495675062L206.875,24.73053653670813L207.5,24.58300025669452L208.125,24.432119505927403L208.75,24.278231702368352L209.375,24.12182606753189L210,23.963032308129765L210.625,23.802583213974504L211.25,23.64064323821912L211.875,23.482792249052952L212.5,23.327184249123242L213.125,23.175202729118134L213.75,23.02149233169459L214.375,22.866100357131096L215,22.70961034705274L215.625,22.552184770721485L216.25,22.394207791452068L216.875,22.24196152707738L217.5,22.088843087382337L218.125,21.935400717425836L218.75,21.781535821159313" style="fill: none;" fill="none"></path></g></g></g></g><g opacity="0.2"><g><g><g><path stroke="rgb(255, 112, 67)" stroke-width="2px" d="M31.25,158.769L31.875,247.623L36.25,192.49733093261716L36.875,173.56619567871093L37.5,156.45191400146484L38.125,164.71325720214844L38.75,157.29854095458984L39.375,151.2717903442383L40,158.93420288085937L40.625,148.259625L41.25,141.26682861328126L41.875,133.33999639892576L42.5,128.6696876220703L43.125,139.06005432128907L43.75,133.84571685791016L44.375,128.42958599853515L45,122.36086486816406L45.625,116.49550360107422L46.25,117.11028259277346L46.875,118.54915301513671L47.5,113.49633453369141L48.125,114.97413977050783L48.75,114.12227325439453L49.375,110.72529711914062L50,106.74241900634766L50.625,102.9144375L51.25,100.90608599853515L51.875,97.38123211669922L52.5,93.99711181640625L53.125,92.20225360107422L53.75,92.30788751220702L54.375,89.27786444091798L55,86.90246264648437L55.625,88.83187500000001L56.25,86.34146209716796L56.875,83.898L57.5,81.3541435546875L58.125,79.01441400146484L58.75,80.60187194824219L59.375,78.56875946044921L60,76.62216998291017L60.625,74.82306610107423L61.25,73.75120275878906L61.875,71.91864129638672L62.5,71.63641250610351L63.125,70.17709698486328L63.75,70.86679092407226L64.375,70.70822122192382L65,68.95920108032227L65.625,67.45596505737304L66.25,65.90610772705078L66.875,66.32617483520508L67.5,64.84499899291993L68.125,63.36010144042968L68.75,65.67570739746094L69.375,64.30238552856444L70,66.36938232421875L70.625,65.000484375L71.25,63.93512457275391L71.875,62.75990679931641L72.5,62.10586349487304L73.125,60.86717678833008L73.75,60.446780181884755L74.375,59.259597839355465L75,58.12330947875977L75.625,57.07266906738282L76.25,56.01929003906251L76.875,54.989597076416025L77.5,55.518998199462885L78.125,54.63710412597656L78.75,53.824091400146486L79.375,52.98427047729491L80,52.04248333740234L80.625,51.15742391967774L81.25,50.23522302246095L81.875,50.80331588745117L82.5,50.42154080200196L83.125,49.553680114746086L83.75,48.75829284667968L84.375,48.621486236572274L85,47.816446289062505L85.625,47.17452420043946L86.25,46.455537322998055L86.875,46.210768707275385L87.5,46.20672290039062L88.125,46.272033782958985L88.75,45.553711303710934L89.375,44.96741500854491L90,44.24813644409179L90.625,43.53646874999999L91.25,42.817579101562494L91.875,42.13141781616211L92.5,41.46627420043946L93.125,41.23569021606445L93.75,41.708909179687495L94.375,41.08135537719726L95,41.53657077026367L95.625,40.895507537841794L96.25,40.3121713256836L96.875,39.831681793212894L97.5,41.04580197143555L98.125,40.55430395507812L98.75,41.58525549316406L99.375,41.01733547973633L100,40.42616152954102L100.625,39.842382385253906L101.25,39.3080982055664L101.875,38.77697396850585L102.5,39.05851135253907L103.125,38.618042358398434L103.75,38.16089859008788L104.375,37.865997619628914L105,37.36187603759765L105.625,36.835175720214856L106.25,36.33766030883788L106.875,35.83234497070312L107.5,35.36402526855468L108.125,34.89469546508789L108.75,35.979144561767576L109.375,35.498330932617186L110,35.10035641479492L110.625,34.635304687499996L111.25,34.195300231933594L111.875,34.087478668212896L112.5,33.64756604003905L113.125,33.19554299926759L113.75,32.77561093139648L114.375,32.37515167236329L115,32.81055395507813L115.625,32.402710693359374L116.25,32.151984100341785L116.875,33.214432434082035L117.5,32.862150146484375L118.125,32.55535482788087L118.75,32.16002169799805L119.375,31.89739535522461L120,32.73633581542968L120.625,33.59189703369142L121.25,33.20153878784179L121.875,32.80319155883789L122.5,32.39942651367187L123.125,32.00470916748046L123.75,31.618850463867194L124.375,31.23460144042968L125,30.873017578125L125.62499999999999,30.589557220458993L126.25,31.66796191406249L126.87499999999999,31.37612365722656L127.5,31.00811727905273L128.125,32.96625L128.75,34.899438079833985L129.375,35.08185049438477L130,34.76435998535156L130.625,34.53491033935547L131.25,34.15660308837891L131.875,36.02277877807617L132.5,37.866057037353514L133.125,39.686853790283195L133.75,41.48557955932618L134.375,43.26263946533203L135,45.018411621093755L135.625,46.753284942626955L136.25,48.46762673950196L136.875,49.88484750366211L137.5,49.42544046020508L138.125,48.97445993041992L138.75,48.58701315307617L139.375,48.1409480895996L140,48.244129669189455L140.625,47.92878359985352L141.25,47.73199749755859L141.875,47.33954342651367L142.5,46.993003051757825L143.125,46.759464385986334L143.75,46.31043383789063L144.375,45.91107650756835L145,45.57024563598633L145.625,45.25332229614257L146.25,44.8958112487793L146.875,44.611610870361325L147.5,44.2301220703125L148.125,43.93648507690429L148.75,43.56354162597657L149.375,43.13676571655273L150,42.77561938476562L150.625,42.438515624999994L151.25,42.078309173583996L151.875,41.869623321533204L152.5,41.545078308105474L153.125,41.20036367797851L153.75,40.88789666748047L154.375,40.7788327331543L155,40.43693774414062L155.625,40.12324456787109L156.25,39.78273239135741L156.875,39.60243740844727L157.5,39.27830291748047L158.125,38.95735537719726L158.75,38.64385125732421L159.375,38.32823510742188L160,37.95922943115234L160.625,37.8669375L161.25,37.884773620605465L161.875,37.684984222412105L162.5,37.59278411865234L163.125,37.41045272827147L163.75,37.10102682495116L164.375,36.79697552490235L165,36.492459686279304L165.625,36.1940422668457L166.25,35.895927337646484L166.875,35.60541787719727L167.5,35.369286437988286L168.125,35.21656127929687L168.75,34.97231661987304L169.375,34.75817514038085L170,34.4959485168457L170.625,34.40990625L171.25,34.13503985595704L171.875,33.8633874206543L172.5,33.658850006103506L173.125,33.47395825195312L173.75,33.23194445800781L174.375,32.985107025146476L175,32.736573486328126L175.625,32.505438537597655L176.25,32.30591921997071L176.875,32.08238433837891L177.5,31.814810119628905L178.125,31.592247528076165L178.75,31.42085980224609L179.375,31.178775787353516L180,31.125337646484375L180.625,30.941812500000008L181.25,30.69738418579102L181.875,30.451313781738286L182.5,30.207998199462885L183.125,30.01528491210937L183.75,29.779347930908198L184.375,29.54244946289062L185,29.312492065429684L185.625,29.080098541259773L186.25,28.907155151367196L186.875,28.81205978393554L187.5,28.654959320068357L188.125,28.43308273315429L188.75,28.227654052734373L189.375,28.014085144042966L190,27.759847503662108L190.625,27.65417578125001L191.25,27.44946281433105L191.875,27.236733856201166L192.5,27.04956262207032L193.125,26.84545463562011L193.75,26.63748179626464L194.375,26.435828842163087L195,26.228976837158203L195.625,26.027045700073245L196.25,25.82129562377929L196.875,25.63172877502441L197.5,25.56490003967285L198.125,25.36251516723633L198.75,25.204404602050783L199.375,25.03435647583008L200,24.836168655395507L200.625,24.679786605834956L201.25,24.528438858032217L201.875,24.378195739746083L202.5,24.415701828002927L203.125,24.224630630493163L203.75,24.031744491577154L204.375,23.844065505981437L205,23.83473152160644L205.625,23.650361022949216L206.25,23.52462231445313L206.875,23.437434906005866L207.5,23.255173736572264L208.125,23.074192749023428L208.75,22.893241470336914L209.375,22.71417535400391L210,22.533888473510732L210.625,22.358541366577143L211.25,22.183183456420892L211.875,22.062133346557612L212.5,21.926712249755866L213.125,21.807369049072268L213.75,21.638098754882815L214.375,21.467572586059564L215,21.301200256347666L215.625,21.135354583740234L216.25,20.97241497802734L216.875,20.87174514770508L217.5,20.71077713012696L218.125,20.55441938781738L218.75,20.396751754760746" style="fill: none;" fill="none"></path></g></g></g></g></g></g><g transform="translate(80, 177)" clip-path="url(#clip_1)"><clipPath id="clip_1"><rect width="250" height="22"></rect></clipPath><g><g><line x1="0" y1="0" x2="0" y2="5" style="visibility: inherit;" fill="rgb(0, 0, 0)" stroke="rgb(204, 204, 204)" stroke-width="1px"></line><line x1="31.25" y1="0" x2="31.25" y2="5" style="visibility: inherit;" fill="rgb(0, 0, 0)" stroke="rgb(204, 204, 204)" stroke-width="1px"></line><line x1="62.5" y1="0" x2="62.5" y2="5" style="visibility: inherit;" fill="rgb(0, 0, 0)" stroke="rgb(204, 204, 204)" stroke-width="1px"></line><line x1="93.75" y1="0" x2="93.75" y2="5" style="visibility: inherit;" fill="rgb(0, 0, 0)" stroke="rgb(204, 204, 204)" stroke-width="1px"></line><line x1="125" y1="0" x2="125" y2="5" style="visibility: inherit;" fill="rgb(0, 0, 0)" stroke="rgb(204, 204, 204)" stroke-width="1px"></line><line x1="156.25" y1="0" x2="156.25" y2="5" style="visibility: inherit;" fill="rgb(0, 0, 0)" stroke="rgb(204, 204, 204)" stroke-width="1px"></line><line x1="187.5" y1="0" x2="187.5" y2="5" style="visibility: inherit;" fill="rgb(0, 0, 0)" stroke="rgb(204, 204, 204)" stroke-width="1px"></line><line x1="218.75" y1="0" x2="218.75" y2="5" style="visibility: inherit;" fill="rgb(0, 0, 0)" stroke="rgb(204, 204, 204)" stroke-width="1px"></line><line x1="250" y1="0" x2="250" y2="5" style="visibility: inherit;" fill="rgb(0, 0, 0)" stroke="rgb(204, 204, 204)" stroke-width="1px"></line></g><g transform="translate(0, 8)"><text x="0" y="0" dx="0em" dy="0.95em" style="text-anchor: middle; visibility: hidden; font-family: Roboto, sans-serif; font-size: 12px; font-weight: 200;" fill="rgb(33, 33, 33)" stroke="none" stroke-width="1px">-50</text><text x="31.25" y="0" dx="0em" dy="0.95em" style="text-anchor: middle; visibility: inherit; font-family: Roboto, sans-serif; font-size: 12px; font-weight: 200;" fill="rgb(33, 33, 33)" stroke="none" stroke-width="1px">0</text><text x="62.5" y="0" dx="0em" dy="0.95em" style="text-anchor: middle; visibility: inherit; font-family: Roboto, sans-serif; font-size: 12px; font-weight: 200;" fill="rgb(33, 33, 33)" stroke="none" stroke-width="1px">50</text><text x="93.75" y="0" dx="0em" dy="0.95em" style="text-anchor: middle; visibility: inherit; font-family: Roboto, sans-serif; font-size: 12px; font-weight: 200;" fill="rgb(33, 33, 33)" stroke="none" stroke-width="1px">100</text><text x="125" y="0" dx="0em" dy="0.95em" style="text-anchor: middle; visibility: inherit; font-family: Roboto, sans-serif; font-size: 12px; font-weight: 200;" fill="rgb(33, 33, 33)" stroke="none" stroke-width="1px">150</text><text x="156.25" y="0" dx="0em" dy="0.95em" style="text-anchor: middle; visibility: inherit; font-family: Roboto, sans-serif; font-size: 12px; font-weight: 200;" fill="rgb(33, 33, 33)" stroke="none" stroke-width="1px">200</text><text x="187.5" y="0" dx="0em" dy="0.95em" style="text-anchor: middle; visibility: inherit; font-family: Roboto, sans-serif; font-size: 12px; font-weight: 200;" fill="rgb(33, 33, 33)" stroke="none" stroke-width="1px">250</text><text x="218.75" y="0" dx="0em" dy="0.95em" style="text-anchor: middle; visibility: inherit; font-family: Roboto, sans-serif; font-size: 12px; font-weight: 200;" fill="rgb(33, 33, 33)" stroke="none" stroke-width="1px">300</text><text x="250" y="0" dx="0em" dy="0.95em" style="text-anchor: middle; visibility: hidden; font-family: Roboto, sans-serif; font-size: 12px; font-weight: 200;" fill="rgb(33, 33, 33)" stroke="none" stroke-width="1px">350</text></g><line x1="0" y1="0" x2="250" y2="0" fill="rgb(0, 0, 0)" stroke="rgb(204, 204, 204)" stroke-width="1px"></line></g></g></g></g></svg>