<svg viewBox="0 0 330 200" xmlns="http://www.w3.org/2000/svg"><g><g><g><g><g><line x1="72.34375" y1="177" x2="67.34375" y2="177" style="visibility: inherit;" fill="rgb(0, 0, 0)" stroke="rgb(204, 204, 204)" stroke-width="1px"></line><line x1="72.34375" y1="157.33333333333331" x2="67.34375" y2="157.33333333333331" style="visibility: inherit;" fill="rgb(0, 0, 0)" stroke="rgb(204, 204, 204)" stroke-width="1px"></line><line x1="72.34375" y1="137.66666666666666" x2="67.34375" y2="137.66666666666666" style="visibility: inherit;" fill="rgb(0, 0, 0)" stroke="rgb(204, 204, 204)" stroke-width="1px"></line><line x1="72.34375" y1="118.00000000000001" x2="67.34375" y2="118.00000000000001" style="visibility: inherit;" fill="rgb(0, 0, 0)" stroke="rgb(204, 204, 204)" stroke-width="1px"></line><line x1="72.34375" y1="98.33333333333334" x2="67.34375" y2="98.33333333333334" style="visibility: inherit;" fill="rgb(0, 0, 0)" stroke="rgb(204, 204, 204)" stroke-width="1px"></line><line x1="72.34375" y1="78.66666666666666" x2="67.34375" y2="78.66666666666666" style="visibility: inherit;" fill="rgb(0, 0, 0)" stroke="rgb(204, 204, 204)" stroke-width="1px"></line><line x1="72.34375" y1="59.00000000000001" x2="67.34375" y2="59.00000000000001" style="visibility: inherit;" fill="rgb(0, 0, 0)" stroke="rgb(204, 204, 204)" stroke-width="1px"></line><line x1="72.34375" y1="39.33333333333333" x2="67.34375" y2="39.33333333333333" style="visibility: inherit;" fill="rgb(0, 0, 0)" stroke="rgb(204, 204, 204)" stroke-width="1px"></line><line x1="72.34375" y1="19.666666666666675" x2="67.34375" y2="19.666666666666675" style="visibility: inherit;" fill="rgb(0, 0, 0)" stroke="rgb(204, 204, 204)" stroke-width="1px"></line><line x1="72.34375" y1="0" x2="67.34375" y2="0" style="visibility: inherit;" fill="rgb(0, 0, 0)" stroke="rgb(204, 204, 204)" stroke-width="1px"></line></g><g transform="translate(62.34375, 0)"><text x="0" y="177" dx="0em" dy="0.3em" style="text-anchor: end; visibility: hidden; font-family: Roboto, sans-serif; font-size: 12px; font-weight: 200;" fill="rgb(33, 33, 33)" stroke="none" stroke-width="1px">300</text><text x="0" y="157.33333333333331" dx="0em" dy="0.3em" style="text-anchor: end; visibility: inherit; font-family: Roboto, sans-serif; font-size: 12px; font-weight: 200;" fill="rgb(33, 33, 33)" stroke="none" stroke-width="1px">400</text><text x="0" y="137.66666666666666" dx="0em" dy="0.3em" style="text-anchor: end; visibility: hidden; font-family: Roboto, sans-serif; font-size: 12px; font-weight: 200;" fill="rgb(33, 33, 33)" stroke="none" stroke-width="1px">500</text><text x="0" y="118.00000000000001" dx="0em" dy="0.3em" style="text-anchor: end; visibility: inherit; font-family: Roboto, sans-serif; font-size: 12px; font-weight: 200;" fill="rgb(33, 33, 33)" stroke="none" stroke-width="1px">600</text><text x="0" y="98.33333333333334" dx="0em" dy="0.3em" style="text-anchor: end; visibility: hidden; font-family: Roboto, sans-serif; font-size: 12px; font-weight: 200;" fill="rgb(33, 33, 33)" stroke="none" stroke-width="1px">700</text><text x="0" y="78.66666666666666" dx="0em" dy="0.3em" style="text-anchor: end; visibility: inherit; font-family: Roboto, sans-serif; font-size: 12px; font-weight: 200;" fill="rgb(33, 33, 33)" stroke="none" stroke-width="1px">800</text><text x="0" y="59.00000000000001" dx="0em" dy="0.3em" style="text-anchor: end; visibility: hidden; font-family: Roboto, sans-serif; font-size: 12px; font-weight: 200;" fill="rgb(33, 33, 33)" stroke="none" stroke-width="1px">900</text><text x="0" y="39.33333333333333" dx="0em" dy="0.3em" style="text-anchor: end; visibility: inherit; font-family: Roboto, sans-serif; font-size: 12px; font-weight: 200;" fill="rgb(33, 33, 33)" stroke="none" stroke-width="1px">1e+3</text><text x="0" y="19.666666666666675" dx="0em" dy="0.3em" style="text-anchor: end; visibility: hidden; font-family: Roboto, sans-serif; font-size: 12px; font-weight: 200;" fill="rgb(33, 33, 33)" stroke="none" stroke-width="1px">1.1e+3</text><text x="0" y="0" dx="0em" dy="0.3em" style="text-anchor: end; visibility: hidden; font-family: Roboto, sans-serif; font-size: 12px; font-weight: 200;" fill="rgb(33, 33, 33)" stroke="none" stroke-width="1px">1.2e+3</text></g><line x1="72.34375" y1="0" x2="72.34375" y2="177" fill="rgb(0, 0, 0)" stroke="rgb(204, 204, 204)" stroke-width="1px"></line></g></g><g transform="translate(72, 0)" clip-path="url(#clip_0)"><clipPath id="clip_0"><rect width="257" height="176"></rect></clipPath><g><g><g><line x1="0" y1="0" x2="0" y2="177" fill="rgb(0, 0, 0)" stroke="rgb(66, 66, 66)" stroke-width="1px" opacity="0.25"></line><line x1="32.20703125" y1="0" x2="32.20703125" y2="177" fill="rgb(0, 0, 0)" stroke="rgb(66, 66, 66)" stroke-width="1px" opacity="0.25"></line><line x1="64.4140625" y1="0" x2="64.4140625" y2="177" fill="rgb(0, 0, 0)" stroke="rgb(66, 66, 66)" stroke-width="1px" opacity="0.25"></line><line x1="96.62109375" y1="0" x2="96.62109375" y2="177" fill="rgb(0, 0, 0)" stroke="rgb(66, 66, 66)" stroke-width="1px" opacity="0.25"></line><line x1="128.828125" y1="0" x2="128.828125" y2="177" fill="rgb(0, 0, 0)" stroke="rgb(66, 66, 66)" stroke-width="1px" opacity="0.25"></line><line x1="161.03515625" y1="0" x2="161.03515625" y2="177" fill="rgb(0, 0, 0)" stroke="rgb(66, 66, 66)" stroke-width="1px" opacity="0.25"></line><line x1="193.2421875" y1="0" x2="193.2421875" y2="177" fill="rgb(0, 0, 0)" stroke="rgb(66, 66, 66)" stroke-width="1px" opacity="0.25"></line><line x1="225.44921875" y1="0" x2="225.44921875" y2="177" fill="rgb(0, 0, 0)" stroke="rgb(66, 66, 66)" stroke-width="1px" opacity="0.25"></line><line x1="257.65625" y1="0" x2="257.65625" y2="177" fill="rgb(0, 0, 0)" stroke="rgb(66, 66, 66)" stroke-width="1px" opacity="0.25"></line></g><g><line x1="0" y1="177" x2="257.65625" y2="177" fill="rgb(0, 0, 0)" stroke="rgb(66, 66, 66)" stroke-width="1px" opacity="0.25"></line><line x1="0" y1="157.33333333333331" x2="257.65625" y2="157.33333333333331" fill="rgb(0, 0, 0)" stroke="rgb(66, 66, 66)" stroke-width="1px" opacity="0.25"></line><line x1="0" y1="137.66666666666666" x2="257.65625" y2="137.66666666666666" fill="rgb(0, 0, 0)" stroke="rgb(66, 66, 66)" stroke-width="1px" opacity="0.25"></line><line x1="0" y1="118.00000000000001" x2="257.65625" y2="118.00000000000001" fill="rgb(0, 0, 0)" stroke="rgb(66, 66, 66)" stroke-width="1px" opacity="0.25"></line><line x1="0" y1="98.33333333333334" x2="257.65625" y2="98.33333333333334" fill="rgb(0, 0, 0)" stroke="rgb(66, 66, 66)" stroke-width="1px" opacity="0.25"></line><line x1="0" y1="78.66666666666666" x2="257.65625" y2="78.66666666666666" fill="rgb(0, 0, 0)" stroke="rgb(66, 66, 66)" stroke-width="1px" opacity="0.25"></line><line x1="0" y1="59.00000000000001" x2="257.65625" y2="59.00000000000001" fill="rgb(0, 0, 0)" stroke="rgb(66, 66, 66)" stroke-width="1px" opacity="0.25"></line><line x1="0" y1="39.33333333333333" x2="257.65625" y2="39.33333333333333" fill="rgb(0, 0, 0)" stroke="rgb(66, 66, 66)" stroke-width="1px" opacity="0.25"></line><line x1="0" y1="19.666666666666675" x2="257.65625" y2="19.666666666666675" fill="rgb(0, 0, 0)" stroke="rgb(66, 66, 66)" stroke-width="1px" opacity="0.25"></line><line x1="0" y1="0" x2="257.65625" y2="0" fill="rgb(0, 0, 0)" stroke="rgb(66, 66, 66)" stroke-width="1px" opacity="0.25"></line></g></g></g><g><g><line x1="0" y1="236" x2="257.65625" y2="236" fill="rgb(0, 0, 0)" stroke="rgb(153, 153, 153)" stroke-width="1.5px"></line></g></g><g><g><line x1="32.20703125" y1="0" x2="32.20703125" y2="177" fill="rgb(0, 0, 0)" stroke="rgb(153, 153, 153)" stroke-width="1.5px"></line></g></g><g><g><g><g><g><path stroke="rgb(255, 112, 67)" stroke-width="2px" d="M32.20703125,0.39333333333333587L32.851171875,-41.16543859649122L43.157421875000004,-5.197991592185804L43.8015625,0.03681185485020977L44.445703124999994,3.470391412167517L45.08984375,7.079832939456438L45.733984375,10.874658785999472L46.378125,14.917682781638083L47.022265624999996,19.159490216905457L47.66640625,22.80587479438157L48.310546875,25.837524094877825L48.9546875,29.09866517398278L49.598828125000004,31.800333183992983L50.24296875,34.28253664061697L50.887109375,36.86849365871516L51.53125,39.61662003677137L52.175390625000006,42.4932533593957L52.81953125,45.27767187181437L53.463671874999996,48.15519143350368L54.1078125,51.10140188314444L54.751953125,53.929843468177594L55.39609375,56.43898503909614L56.040234375,59.01883967597928L56.684375,61.589108449069045L57.328515625,63.666325221983335L57.97265625,65.80058004195432L58.616796875,67.98144248471459L59.260937500000004,70.21608241327888L59.905078125,72.47671559877591L60.549218749999994,74.32108987185707L61.193359375,76.19793432191L61.8375,78.0947350562021L62.481640625,79.99341826335086L63.125781249999996,81.81294451300005L63.769921875,83.64671442499909L64.4140625,85.32057886167077L65.058203125,86.982413621499L65.70234375,88.39406141348849L66.346484375,89.67566794289787L66.99062500000001,91.01787686961711L67.634765625,92.38742360513665L68.27890625,93.78696759491012L68.923046875,94.99432888005293L69.5671875,96.24071782048077L70.21132812500001,97.52280583945924L70.85546875,98.41421317302252L71.499609375,99.3648316629913L72.14375000000001,99.98610396550536L72.78789062499999,100.69344733150598L73.43203125,101.44459242025556L74.076171875,102.24748616806487L74.72031249999999,103.0390991798932L75.364453125,103.88568699812329L76.00859375,104.69086184331677L76.652734375,105.5441296547448L77.296875,106.43511120186125L77.94101562499999,107.35060188996286L78.58515625,108.28854131643646L79.229296875,109.24413447088943L79.8734375,110.04239881870629L80.517578125,110.85602591521766L81.16171875,111.67589842230143L81.805859375,112.5044424973903L82.45,113.35219172955037L83.09414062500001,114.21098566131387L83.73828125,115.0839100540905L84.382421875,115.8039966573723L85.0265625,116.49215233249794L85.670703125,117.20564600064746L86.31484375000001,117.93394368697994L86.958984375,118.60243355445172L87.603125,119.29140446643717L88.24726562500001,119.98073058163064L88.89140624999999,120.67898678686528L89.535546875,121.33262998675902L90.1796875,121.91941806195938L90.82382812499999,122.43837479340223L91.46796875,122.98339855433008L92.112109375,123.53725304718807L92.75625,124.11386965881985L93.400390625,124.71016308314131L94.04453124999999,125.32500474811174L94.688671875,125.95293628198077L95.3328125,126.59034884345606L95.976953125,127.18803997866605L96.62109375,127.67181193758327L97.265234375,128.1753995129475L97.909375,128.57654052647882L98.553515625,129.00731998604164L99.19765625000001,129.45838917018793L99.841796875,129.91631792733108L100.4859375,130.19215379089974L101.130078125,130.4936490937507L101.77421875,130.64909964714718L102.41835937500001,130.85078904384562L103.0625,131.0967004907891L103.706640625,131.3816134506305L104.35078125000001,131.69615043686233L104.99492187499999,132.0370201101058L105.6390625,132.3113133532072L106.283203125,132.60593346797157L106.92734374999999,132.9207203201082L107.571484375,133.23564938087205L108.215625,133.57397366737044L108.859765625,133.93588040714485L109.50390625,134.3157865735871L110.14804687499999,134.71277748694123L110.7921875,135.12105083975254L111.436328125,135.53960802970354L112.08046875,135.79479445202037L112.724609375,136.07688186665615L113.36875,136.37399201079606L114.012890625,136.69209064773378L114.65703125,137.02631089513835L115.30117187500001,137.33814694344454L115.9453125,137.66675007273844L116.589453125,138.01180238008283L117.23359375,138.36810888473727L117.877734375,138.73239252400364L118.52187500000001,139.01099522319615L119.166015625,139.30619230492712L119.81015625,139.5988795166469L120.45429687500001,139.7434120553648L121.09843749999999,139.9118097741988L121.742578125,140.0966434465746L122.38671875,140.30611841746963L123.03085937499999,140.52303735556046L123.675,140.62426972075508L124.319140625,140.6195488326686L124.96328125,140.65791575598504L125.607421875,140.735959574681L126.25156249999999,140.85032537981806L126.895703125,140.9963852737472L127.53984375,141.16999515534718L128.183984375,141.36823137455022L128.828125,141.58612134784275L129.47226562499998,141.81302891188383L130.11640625,141.89674355631203L130.760546875,142.0038422103812L131.4046875,142.14045800038616L132.048828125,142.07052785688126L132.69296875,141.81716291064254L133.33710937499998,141.56791092984173L133.98125000000002,141.37791619315493L134.625390625,141.23148266011174L135.26953125,141.14080654800154L135.913671875,140.87533679398916L136.5578125,140.45480943744133L137.201953125,139.89694430060837L137.84609375,139.2176496113302L138.490234375,138.43120376273495L139.134375,137.5504188969524L139.77851562499998,136.58678753026376L140.42265625000002,135.55061811680048L141.066796875,134.45867009716872L141.7109375,133.5250583428362L142.355078125,132.7330345535396L142.99921875,132.0614034329732L143.643359375,131.50465926279583L144.28750000000002,130.99030754858387L144.931640625,130.56063252316085L145.57578124999998,130.19401419387043L146.219921875,129.90590698221752L146.8640625,129.68337746013253L147.508203125,129.5073325190873L148.15234375,129.3970852488619L148.796484375,129.34055584154854L149.44062499999998,129.32588817643975L150.08476562500002,129.34625769220665L150.72890625,129.40268722103093L151.373046875,129.48344313703495L152.0171875,129.59692003132872L152.661328125,129.73010249955718L153.30546875,129.88984741760382L153.949609375,130.07949552941727L154.59375,130.28878114531375L155.237890625,130.5130853228166L155.88203124999998,130.75348817598072L156.52617187500002,130.99156041989656L157.1703125,131.24042336013787L157.814453125,131.50125339989282L158.45859375,131.76928516465512L159.102734375,132.02121374476323L159.746875,132.28453277983573L160.39101562500002,132.55498469410028L161.03515625,132.8348492924949L161.67929687499998,133.10539720031406L162.3234375,133.38355545812755L162.967578125,133.66822272942247L163.61171875,133.95793366989844L164.255859375,134.2524317865802L164.9,134.55718193484793L165.54414062499998,134.84042674397193L166.18828125000002,135.0920923012516L166.832421875,135.33952914866126L167.4765625,135.57121779471882L168.120703125,135.7987596505462L168.76484375,136.0367024111202L169.408984375,136.2834202112264L170.053125,136.53809856571038L170.697265625,136.7992746202249L171.34140625,137.0662763981427L171.98554687499998,137.33768707826277L172.62968750000002,137.6070339710481L173.273828125,137.86526689395242L173.91796875,138.12367688060252L174.562109375,138.37891102971818L175.20625,138.6366405220587L175.850390625,138.87704938653303L176.49453125000002,139.12285974737136L177.138671875,139.37318455145422L177.78281249999998,139.62012473279356L178.426953125,139.8618449051937L179.07109375,140.10522356572406L179.715234375,140.3506404283159L180.359375,140.59808853148706L181.003515625,140.84544057718875L181.64765624999998,141.0892029261321L182.29179687500002,141.33241074631664L182.9359375,141.5800223531672L183.580078125,141.82660327825482L184.22421875,142.06658009642885L184.868359375,142.30847676411653L185.5125,142.5311478458455L186.156640625,142.75097901463238L186.80078125,142.97502908273503L187.444921875,143.2030664169765L188.08906249999998,143.4343934015827L188.73320312500002,143.66306759698912L189.37734375,143.894163516735L190.021484375,144.12755362258233L190.665625,144.3622450681866L191.309765625,144.59838500228696L191.95390625,144.82923080788603L192.59804687500002,145.0466693197089L193.2421875,145.25893732426215L193.88632812499998,145.4737564214264L194.53046875,145.689051158923L195.174609375,145.9056856446751L195.81875,146.128050653613L196.462890625,146.3390724111688L197.10703125,146.55089672726257L197.75117187499998,146.76434061370006L198.39531250000002,146.97640866821578L199.039453125,147.1891266372506L199.68359375,147.40286525933308L200.327734375,147.61682686165517L200.971875,147.83157252021644L201.616015625,148.04648366826007L202.26015625,148.261973485028L202.904296875,148.47619196904486L203.5484375,148.67563498730976L204.19257812499998,148.8768475811082L204.83671875000002,149.0747391271153L205.480859375,149.27097412757118L206.125,149.46884937106412L206.769140625,149.66356264969673L207.41328125,149.85487559452528L208.057421875,150.04301120401814L208.70156250000002,150.20743159037093L209.345703125,150.37591085361578L209.98984374999998,150.54825016783104L210.633984375,150.72348975676087L211.278125,150.88152888329836L211.922265625,151.0435411967915L212.56640625,151.20261983671523L213.210546875,151.35478009425464L213.85468749999998,151.5112823603012L214.49882812500002,151.67155439282578L215.14296875,151.83522101571774L215.787109375,152.00173870906784L216.43125,152.1709622075458L217.075390625,152.34207656825285L217.71953125,152.51489870675636L218.363671875,152.68322844667645L219.0078125,152.8491163055407L219.651953125,153.0110245398955L220.29609374999998,153.174902768279L220.94023437500002,153.3406980342571L221.584375,153.50776129764455L222.228515625,153.67591174258712L222.87265625,153.84472255604L223.516796875,154.0072124382941L224.1609375,154.17071748230646L224.80507812500002,154.33462782025745L225.44921875,154.4990529675123" style="fill: none;" fill="none"></path></g></g></g></g><g opacity="0.2"><g><g><g><path stroke="rgb(255, 112, 67)" stroke-width="2px" d="M32.20703125,0.39333333333333587L32.851171875,-78.56833333333336L38.004296875,-4.189009602864583L38.6484375,13.748781331380204L39.292578125,3.671103108723952L39.93671875,11.14947794596355L40.580859375,17.194289143880216L41.225,8.115788981119797L41.869140625,19.482291666666665L42.51328125,26.816071370442707L43.157421875000004,35.23611511230468L43.8015625,40.078599650065094L44.445703124999994,30.198176269531245L45.08984375,35.615392252604174L45.733984375,41.29105733235677L46.378125,47.72159159342447L47.022265624999996,53.952218221028645L47.66640625,53.005603841145835L48.310546875,51.16359436035157L48.9546875,56.5525899251302L49.598828125000004,54.70143371582031L50.24296875,55.45321797688803L50.887109375,59.0458896891276L51.53125,63.30129109700521L52.175390625000006,67.39520833333333L52.81953125,69.47696533203126L53.463671874999996,73.25254760742189L54.1078125,76.87981363932292L54.751953125,78.74861511230468L55.39609375,78.51251668294272L56.040234375,81.76675944010417L56.684375,84.29940694173176L57.328515625,82.05424519856771L57.97265625,84.72495788574219L58.616796875,87.34810038248698L59.260937500000004,90.08705342610676L59.905078125,92.60318400065103L60.549218749999994,90.75948201497395L61.193359375,92.94210510253907L61.8375,95.03184448242186L62.481640625,96.96075988769532L63.125781249999996,98.08448710123697L63.769921875,100.05613525390625L64.4140625,100.30771830240886L65.058203125,101.86955220540365L65.70234375,101.0458544921875L66.346484375,101.16679056803385L66.99062500000001,103.05691040039062L67.634765625,104.67583333333334L68.27890625,106.3483642578125L68.923046875,105.83379475911458L69.5671875,107.43333190917969L70.21132812500001,109.03855875651041L70.85546875,106.42246236165366L71.499609375,107.90656107584635L72.14375000000001,105.56941589355468L72.78789062499999,107.05119791666667L73.43203125,108.1969276936849L74.076171875,109.46586222330728L74.72031249999999,110.15681233723957L75.364453125,111.49842854817709L76.00859375,111.93182983398438L76.652734375,113.21819356282552L77.296875,114.44892069498698L77.94101562499999,115.58537170410155L78.58515625,116.7257118733724L79.229296875,117.84054443359373L79.8734375,117.22382446289062L80.517578125,118.17596048990885L81.16171875,119.05229390462239L81.805859375,119.95910441080729L82.45,120.9798769124349L83.09414062500001,121.9382548014323L83.73828125,122.93851318359374L84.382421875,122.28350179036458L85.0265625,122.68445739746093L85.670703125,123.62606628417969L86.31484375000001,124.48768330891926L86.958984375,124.6180662027995L87.603125,125.4914227294922L88.24726562500001,126.18401733398439L88.89140624999999,126.96270161946615L89.535546875,127.21492085774739L90.1796875,127.20010843912759L90.82382812499999,127.10866516113283L91.46796875,127.88830973307292L92.112109375,128.52166666666668L92.75625,129.30315979003905L93.400390625,130.0765625L94.04453124999999,130.8583557128906L94.688671875,131.6041141764323L95.3328125,132.32687377929688L95.976953125,132.5671014404297L96.62109375,132.02564392089843L97.265234375,132.70757934570312L97.909375,132.18673197428384L98.553515625,132.88426005045574L99.19765625000001,133.51794108072917L99.841796875,134.03761210123696L100.4859375,132.6746415201823L101.130078125,133.2070723470052L101.77421875,132.04813863118488L102.41835937500001,132.66597493489584L103.0625,133.3098830159505L103.706640625,133.9458087158203L104.35078125000001,134.5269620768229L104.99492187499999,135.10482645670572L105.6390625,134.7799375406901L106.283203125,135.2575L106.92734374999999,135.7537880452474L107.571484375,136.06999837239582L108.215625,136.6188801066081L108.859765625,137.1930293782552L109.50390625,137.73493103027343L110.14804687499999,138.28568532307943L110.7921875,138.79550140380857L111.436328125,139.3066138712565L112.08046875,138.0914673868815L112.724609375,138.61566375732423L113.36875,139.04797871907553L114.012890625,139.55497395833333L114.65703125,140.0342889404297L115.30117187500001,140.14466786702474L115.9453125,140.62417490641278L116.589453125,141.11726999918622L117.23359375,141.57486450195313L117.877734375,142.010942586263L118.52187500000001,141.51841766357424L119.166015625,141.96296427408853L119.81015625,142.2330628458659L120.45429687500001,141.04420420328776L121.09843749999999,141.4273885091146L121.742578125,141.7601457722982L122.38671875,142.1913924153646L123.03085937499999,142.4753071085612L123.675,141.53536071777344L124.319140625,140.57706085205078L124.96328125,141.003217976888L125.607421875,141.43835378011067L126.25156249999999,141.87961741129558L126.895703125,142.3109240722656L127.53984375,142.7324838256836L128.183984375,143.1523570760091L128.828125,143.54713083902993L129.47226562499998,143.85519673665365L130.11640625,142.6501752726237L130.760546875,142.96773000081382L131.4046875,143.37L132.048828125,141.44115661621092L132.69296875,139.5368785603841L133.33710937499998,139.32464324951172L133.98125000000002,139.66796366373697L134.625390625,139.91358093261718L135.26953125,140.32472157796224L135.913671875,138.48610911051432L136.5578125,136.67006337483724L137.201953125,134.8761582438151L137.84609375,133.10399759928384L138.490234375,131.35319132486978L139.134375,129.6233553059896L139.77851562499998,127.9141054280599L140.42265625000002,126.22509358723958L141.066796875,124.63113810221354L141.7109375,125.12255269368488L142.355078125,125.60482055664062L142.99921875,126.01672342936197L143.643359375,126.49396179199219L144.28750000000002,126.36114217122396L144.931640625,126.69355733235678L145.57578124999998,126.89444925944011L146.219921875,127.31294209798176L146.8640625,127.68061177571614L147.508203125,127.92292805989582L148.15234375,128.40485982259113L148.796484375,128.8317911783854L149.44062499999998,129.19387919108073L150.08476562500002,129.52958333333333L150.72890625,129.91055297851562L151.373046875,130.21024637858073L152.0171875,130.6182120768229L152.661328125,130.92874471028645L153.30546875,131.32755167643228L153.949609375,131.78632853190103L154.59375,132.1723516845703L155.237890625,132.53182291666667L155.88203124999998,132.91711385091145L156.52617187500002,133.13421061197917L157.1703125,133.48018981933595L157.814453125,133.8487237548828L158.45859375,134.18157104492187L159.102734375,134.28857096354164L159.746875,134.6544040934245L160.39101562500002,134.9890519205729L161.03515625,135.35363067626955L161.67929687499998,135.54032836914064L162.3234375,135.88697977701824L162.967578125,136.2302281697591L163.61171875,136.56533213297527L164.255859375,136.902914835612L164.9,137.29993326822918L165.54414062499998,137.38963002522786L166.18828125000002,137.35708231608072L166.832421875,137.56646077473957L167.4765625,137.65641560872396L168.120703125,137.84663635253906L168.76484375,138.17818725585937L169.408984375,138.50388041178385L170.053125,138.83020375569663L170.697265625,139.1498591105143L171.34140625,139.46929239908854L171.98554687499998,139.780383199056L172.62968750000002,140.03115600585937L173.273828125,140.1893631998698L173.91796875,140.4493667602539L174.562109375,140.67601837158205L175.20625,140.95620595296225L175.850390625,141.04072916666667L176.49453125000002,141.33515299479168L177.138671875,141.62610778808593L177.78281249999998,141.8425863647461L178.426953125,142.03732645670573L179.07109375,142.29563151041665L179.715234375,142.559392191569L180.359375,142.82512145996094L181.003515625,143.071608988444L181.64765624999998,143.283064066569L182.29179687500002,143.52128112792968L182.9359375,143.80852681477865L183.580078125,144.0458316040039L184.22421875,144.22637145996094L184.868359375,144.48554677327473L185.5125,144.5351875813802L186.156640625,144.72945953369143L186.80078125,144.99147969563802L187.444921875,145.25540242513023L188.08906249999998,145.51633626302083L188.73320312500002,145.7211353556315L189.37734375,145.9740267944336L190.021484375,146.2280645751953L190.665625,146.47446807861328L191.309765625,146.72364440917968L191.95390625,146.90684305826824L192.59804687500002,147.0036159261068L193.2421875,147.16934936523435L193.88632812499998,147.40712829589845L194.53046875,147.62670379638672L195.174609375,147.85539601643882L195.81875,148.12933573404948L196.462890625,148.23826822916666L197.10703125,148.45731557210286L197.75117187499998,148.68533559163413L198.39531250000002,148.88502115885416L199.039453125,149.10358835856118L199.68359375,149.3265128580729L200.327734375,149.54248128255207L200.971875,149.76428344726563L201.616015625,149.98068400065105L202.26015625,150.2013818359375L202.904296875,150.4041583251953L203.5484375,150.4706221516927L204.19257812499998,150.68776092529296L204.83671875000002,150.8557630411784L205.480859375,151.03708913167318L206.125,151.2497265625L206.769140625,151.41598215738932L207.41328125,151.57669209798178L208.057421875,151.73623168945312L208.70156250000002,151.68721506754557L209.345703125,151.892224222819L209.98984374999998,152.09930399576822L210.633984375,152.30064605712892L211.278125,152.3038810221354L211.922265625,152.50165201822915L212.56640625,152.63432759602864L213.210546875,152.72422241210938L213.85468749999998,152.91980275472005L214.49882812500002,153.1140026855469L215.14296875,153.3082206217448L215.787109375,153.50039794921875L216.43125,153.69397369384765L217.075390625,153.8821058146159L217.71953125,154.07029795328776L218.363671875,154.198196105957L219.0078125,154.342107035319L219.651953125,154.46819864908855L220.29609374999998,154.64980682373047L220.94023437500002,154.8328554280599L221.584375,155.0113306681315L222.228515625,155.18926574707032L222.87265625,155.3640198771159L223.516796875,155.46962137858074L224.1609375,155.64226287841797L224.80507812500002,155.8098208618164L225.44921875,155.97887929280597" style="fill: none;" fill="none"></path></g></g></g></g></g></g><g transform="translate(72, 177)" clip-path="url(#clip_1)"><clipPath id="clip_1"><rect width="257" height="22"></rect></clipPath><g><g><line x1="0" y1="0" x2="0" y2="5" style="visibility: inherit;" fill="rgb(0, 0, 0)" stroke="rgb(204, 204, 204)" stroke-width="1px"></line><line x1="32.20703125" y1="0" x2="32.20703125" y2="5" style="visibility: inherit;" fill="rgb(0, 0, 0)" stroke="rgb(204, 204, 204)" stroke-width="1px"></line><line x1="64.4140625" y1="0" x2="64.4140625" y2="5" style="visibility: inherit;" fill="rgb(0, 0, 0)" stroke="rgb(204, 204, 204)" stroke-width="1px"></line><line x1="96.62109375" y1="0" x2="96.62109375" y2="5" style="visibility: inherit;" fill="rgb(0, 0, 0)" stroke="rgb(204, 204, 204)" stroke-width="1px"></line><line x1="128.828125" y1="0" x2="128.828125" y2="5" style="visibility: inherit;" fill="rgb(0, 0, 0)" stroke="rgb(204, 204, 204)" stroke-width="1px"></line><line x1="161.03515625" y1="0" x2="161.03515625" y2="5" style="visibility: inherit;" fill="rgb(0, 0, 0)" stroke="rgb(204, 204, 204)" stroke-width="1px"></line><line x1="193.2421875" y1="0" x2="193.2421875" y2="5" style="visibility: inherit;" fill="rgb(0, 0, 0)" stroke="rgb(204, 204, 204)" stroke-width="1px"></line><line x1="225.44921875" y1="0" x2="225.44921875" y2="5" style="visibility: inherit;" fill="rgb(0, 0, 0)" stroke="rgb(204, 204, 204)" stroke-width="1px"></line><line x1="257.65625" y1="0" x2="257.65625" y2="5" style="visibility: inherit;" fill="rgb(0, 0, 0)" stroke="rgb(204, 204, 204)" stroke-width="1px"></line></g><g transform="translate(0, 8)"><text x="0" y="0" dx="0em" dy="0.95em" style="text-anchor: middle; visibility: hidden; font-family: Roboto, sans-serif; font-size: 12px; font-weight: 200;" fill="rgb(33, 33, 33)" stroke="none" stroke-width="1px">-50</text><text x="32.20703125" y="0" dx="0em" dy="0.95em" style="text-anchor: middle; visibility: inherit; font-family: Roboto, sans-serif; font-size: 12px; font-weight: 200;" fill="rgb(33, 33, 33)" stroke="none" stroke-width="1px">0</text><text x="64.4140625" y="0" dx="0em" dy="0.95em" style="text-anchor: middle; visibility: inherit; font-family: Roboto, sans-serif; font-size: 12px; font-weight: 200;" fill="rgb(33, 33, 33)" stroke="none" stroke-width="1px">50</text><text x="96.62109375" y="0" dx="0em" dy="0.95em" style="text-anchor: middle; visibility: inherit; font-family: Roboto, sans-serif; font-size: 12px; font-weight: 200;" fill="rgb(33, 33, 33)" stroke="none" stroke-width="1px">100</text><text x="128.828125" y="0" dx="0em" dy="0.95em" style="text-anchor: middle; visibility: inherit; font-family: Roboto, sans-serif; font-size: 12px; font-weight: 200;" fill="rgb(33, 33, 33)" stroke="none" stroke-width="1px">150</text><text x="161.03515625" y="0" dx="0em" dy="0.95em" style="text-anchor: middle; visibility: inherit; font-family: Roboto, sans-serif; font-size: 12px; font-weight: 200;" fill="rgb(33, 33, 33)" stroke="none" stroke-width="1px">200</text><text x="193.2421875" y="0" dx="0em" dy="0.95em" style="text-anchor: middle; visibility: inherit; font-family: Roboto, sans-serif; font-size: 12px; font-weight: 200;" fill="rgb(33, 33, 33)" stroke="none" stroke-width="1px">250</text><text x="225.44921875" y="0" dx="0em" dy="0.95em" style="text-anchor: middle; visibility: inherit; font-family: Roboto, sans-serif; font-size: 12px; font-weight: 200;" fill="rgb(33, 33, 33)" stroke="none" stroke-width="1px">300</text><text x="257.65625" y="0" dx="0em" dy="0.95em" style="text-anchor: middle; visibility: hidden; font-family: Roboto, sans-serif; font-size: 12px; font-weight: 200;" fill="rgb(33, 33, 33)" stroke="none" stroke-width="1px">350</text></g><line x1="0" y1="0" x2="257.65625" y2="0" fill="rgb(0, 0, 0)" stroke="rgb(204, 204, 204)" stroke-width="1px"></line></g></g></g></g></svg>