<svg viewBox="0 0 330 200" xmlns="http://www.w3.org/2000/svg"><g><g><g><g><g><line x1="72.34375" y1="177" x2="67.34375" y2="177" style="visibility: inherit;" fill="rgb(0, 0, 0)" stroke="rgb(204, 204, 204)" stroke-width="1px"></line><line x1="72.34375" y1="154.875" x2="67.34375" y2="154.875" style="visibility: inherit;" fill="rgb(0, 0, 0)" stroke="rgb(204, 204, 204)" stroke-width="1px"></line><line x1="72.34375" y1="132.75" x2="67.34375" y2="132.75" style="visibility: inherit;" fill="rgb(0, 0, 0)" stroke="rgb(204, 204, 204)" stroke-width="1px"></line><line x1="72.34375" y1="110.625" x2="67.34375" y2="110.625" style="visibility: inherit;" fill="rgb(0, 0, 0)" stroke="rgb(204, 204, 204)" stroke-width="1px"></line><line x1="72.34375" y1="88.5" x2="67.34375" y2="88.5" style="visibility: inherit;" fill="rgb(0, 0, 0)" stroke="rgb(204, 204, 204)" stroke-width="1px"></line><line x1="72.34375" y1="66.375" x2="67.34375" y2="66.375" style="visibility: inherit;" fill="rgb(0, 0, 0)" stroke="rgb(204, 204, 204)" stroke-width="1px"></line><line x1="72.34375" y1="44.25" x2="67.34375" y2="44.25" style="visibility: inherit;" fill="rgb(0, 0, 0)" stroke="rgb(204, 204, 204)" stroke-width="1px"></line><line x1="72.34375" y1="22.125" x2="67.34375" y2="22.125" style="visibility: inherit;" fill="rgb(0, 0, 0)" stroke="rgb(204, 204, 204)" stroke-width="1px"></line><line x1="72.34375" y1="0" x2="67.34375" y2="0" style="visibility: inherit;" fill="rgb(0, 0, 0)" stroke="rgb(204, 204, 204)" stroke-width="1px"></line></g><g transform="translate(62.34375, 0)"><text x="0" y="177" dx="0em" dy="0.3em" style="text-anchor: end; visibility: hidden; font-family: Roboto, sans-serif; font-size: 12px; font-weight: 200;" fill="rgb(33, 33, 33)" stroke="none" stroke-width="1px">0</text><text x="0" y="154.875" dx="0em" dy="0.3em" style="text-anchor: end; visibility: inherit; font-family: Roboto, sans-serif; font-size: 12px; font-weight: 200;" fill="rgb(33, 33, 33)" stroke="none" stroke-width="1px">200</text><text x="0" y="132.75" dx="0em" dy="0.3em" style="text-anchor: end; visibility: hidden; font-family: Roboto, sans-serif; font-size: 12px; font-weight: 200;" fill="rgb(33, 33, 33)" stroke="none" stroke-width="1px">400</text><text x="0" y="110.625" dx="0em" dy="0.3em" style="text-anchor: end; visibility: inherit; font-family: Roboto, sans-serif; font-size: 12px; font-weight: 200;" fill="rgb(33, 33, 33)" stroke="none" stroke-width="1px">600</text><text x="0" y="88.5" dx="0em" dy="0.3em" style="text-anchor: end; visibility: hidden; font-family: Roboto, sans-serif; font-size: 12px; font-weight: 200;" fill="rgb(33, 33, 33)" stroke="none" stroke-width="1px">800</text><text x="0" y="66.375" dx="0em" dy="0.3em" style="text-anchor: end; visibility: inherit; font-family: Roboto, sans-serif; font-size: 12px; font-weight: 200;" fill="rgb(33, 33, 33)" stroke="none" stroke-width="1px">1e+3</text><text x="0" y="44.25" dx="0em" dy="0.3em" style="text-anchor: end; visibility: hidden; font-family: Roboto, sans-serif; font-size: 12px; font-weight: 200;" fill="rgb(33, 33, 33)" stroke="none" stroke-width="1px">1.2e+3</text><text x="0" y="22.125" dx="0em" dy="0.3em" style="text-anchor: end; visibility: inherit; font-family: Roboto, sans-serif; font-size: 12px; font-weight: 200;" fill="rgb(33, 33, 33)" stroke="none" stroke-width="1px">1.4e+3</text><text x="0" y="0" dx="0em" dy="0.3em" style="text-anchor: end; visibility: hidden; font-family: Roboto, sans-serif; font-size: 12px; font-weight: 200;" fill="rgb(33, 33, 33)" stroke="none" stroke-width="1px">1.6e+3</text></g><line x1="72.34375" y1="0" x2="72.34375" y2="177" fill="rgb(0, 0, 0)" stroke="rgb(204, 204, 204)" stroke-width="1px"></line></g></g><g transform="translate(72, 0)" clip-path="url(#clip_0)"><clipPath id="clip_0"><rect width="257" height="176"></rect></clipPath><g><g><g><line x1="0" y1="0" x2="0" y2="177" fill="rgb(0, 0, 0)" stroke="rgb(66, 66, 66)" stroke-width="1px" opacity="0.25"></line><line x1="32.20703125" y1="0" x2="32.20703125" y2="177" fill="rgb(0, 0, 0)" stroke="rgb(66, 66, 66)" stroke-width="1px" opacity="0.25"></line><line x1="64.4140625" y1="0" x2="64.4140625" y2="177" fill="rgb(0, 0, 0)" stroke="rgb(66, 66, 66)" stroke-width="1px" opacity="0.25"></line><line x1="96.62109375" y1="0" x2="96.62109375" y2="177" fill="rgb(0, 0, 0)" stroke="rgb(66, 66, 66)" stroke-width="1px" opacity="0.25"></line><line x1="128.828125" y1="0" x2="128.828125" y2="177" fill="rgb(0, 0, 0)" stroke="rgb(66, 66, 66)" stroke-width="1px" opacity="0.25"></line><line x1="161.03515625" y1="0" x2="161.03515625" y2="177" fill="rgb(0, 0, 0)" stroke="rgb(66, 66, 66)" stroke-width="1px" opacity="0.25"></line><line x1="193.2421875" y1="0" x2="193.2421875" y2="177" fill="rgb(0, 0, 0)" stroke="rgb(66, 66, 66)" stroke-width="1px" opacity="0.25"></line><line x1="225.44921875" y1="0" x2="225.44921875" y2="177" fill="rgb(0, 0, 0)" stroke="rgb(66, 66, 66)" stroke-width="1px" opacity="0.25"></line><line x1="257.65625" y1="0" x2="257.65625" y2="177" fill="rgb(0, 0, 0)" stroke="rgb(66, 66, 66)" stroke-width="1px" opacity="0.25"></line></g><g><line x1="0" y1="177" x2="257.65625" y2="177" fill="rgb(0, 0, 0)" stroke="rgb(66, 66, 66)" stroke-width="1px" opacity="0.25"></line><line x1="0" y1="154.875" x2="257.65625" y2="154.875" fill="rgb(0, 0, 0)" stroke="rgb(66, 66, 66)" stroke-width="1px" opacity="0.25"></line><line x1="0" y1="132.75" x2="257.65625" y2="132.75" fill="rgb(0, 0, 0)" stroke="rgb(66, 66, 66)" stroke-width="1px" opacity="0.25"></line><line x1="0" y1="110.625" x2="257.65625" y2="110.625" fill="rgb(0, 0, 0)" stroke="rgb(66, 66, 66)" stroke-width="1px" opacity="0.25"></line><line x1="0" y1="88.5" x2="257.65625" y2="88.5" fill="rgb(0, 0, 0)" stroke="rgb(66, 66, 66)" stroke-width="1px" opacity="0.25"></line><line x1="0" y1="66.375" x2="257.65625" y2="66.375" fill="rgb(0, 0, 0)" stroke="rgb(66, 66, 66)" stroke-width="1px" opacity="0.25"></line><line x1="0" y1="44.25" x2="257.65625" y2="44.25" fill="rgb(0, 0, 0)" stroke="rgb(66, 66, 66)" stroke-width="1px" opacity="0.25"></line><line x1="0" y1="22.125" x2="257.65625" y2="22.125" fill="rgb(0, 0, 0)" stroke="rgb(66, 66, 66)" stroke-width="1px" opacity="0.25"></line><line x1="0" y1="0" x2="257.65625" y2="0" fill="rgb(0, 0, 0)" stroke="rgb(66, 66, 66)" stroke-width="1px" opacity="0.25"></line></g></g></g><g><g><line x1="0" y1="177" x2="257.65625" y2="177" fill="rgb(0, 0, 0)" stroke="rgb(153, 153, 153)" stroke-width="1.5px"></line></g></g><g><g><line x1="32.20703125" y1="0" x2="32.20703125" y2="177" fill="rgb(0, 0, 0)" stroke="rgb(153, 153, 153)" stroke-width="1.5px"></line></g></g><g><g><g><g><g><path stroke="rgb(255, 112, 67)" stroke-width="2px" d="M32.20703125,44.47125L32.851171875,-2.2823684210526367L34.78359375,-23.401864972772323L35.427734375,5.745209349302827L36.071875000000006,20.950297387057823L36.716015625,42.52275199725547L37.360156249999996,42.20877202196771L38.004296875,57.4856888483214L38.6484375,71.38827326715496L39.292578125,59.20425752068741L39.93671875,64.80838940102716L40.580859375,69.12822861149006L41.225,57.567300718359874L41.869140625,69.04964772916664L42.51328125,75.80511740950607L43.157421875000004,83.89798991590916L43.8015625,87.58926494576693L44.445703124999994,72.5680464597913L45.08984375,78.48097890474156L45.733984375,84.69701850697771L46.378125,91.93603083981317L47.022265624999996,98.8115510470677L47.66640625,94.76879209038862L48.310546875,89.67545307678488L48.9546875,96.59794909178314L49.598828125000004,91.35422513025327L50.24296875,90.92699188136801L50.887109375,95.64099995561736L51.53125,101.46581609256236L52.175390625000006,106.8591753888324L52.81953125,108.29797117835794L53.463671874999996,113.15719795217655L54.1078125,117.6403227419293L54.751953125,118.42784457422466L55.39609375,114.87630057480388L56.040234375,119.26602421016234L56.684375,121.96410796712144L57.328515625,113.7617084635075L57.97265625,117.63696435042613L58.616796875,121.30512249445495L59.260937500000004,125.17954567634136L59.905078125,128.41275845688105L60.549218749999994,120.46921414584472L61.193359375,123.62483062636943L61.8375,126.46014222577092L62.481640625,128.80768970939025L63.125781249999996,128.90378351162403L63.769921875,131.51435948217548L64.4140625,129.12672372980774L65.058203125,130.85696183601314L65.70234375,125.45045284599044L66.346484375,123.37457570722087L66.99062500000001,127.01137333076663L67.634765625,129.63899536380438L68.27890625,132.35735918859274L68.923046875,127.83991367576327L69.5671875,130.74835452837453L70.21132812500001,133.5643294114062L70.85546875,121.77076012132724L71.499609375,125.18571734697422L72.14375000000001,114.86612673693688L72.78789062499999,119.08217235885024L73.43203125,121.8125398612789L74.076171875,124.85619257856453L74.72031249999999,125.55767624904848L75.364453125,128.7573837707283L76.00859375,128.26023678061244L76.652734375,131.22225654118498L77.296875,133.81024030513098L77.94101562499999,135.89564967990628L78.58515625,137.9161951484056L79.229296875,139.75664473929382L79.8734375,134.23068572416008L80.517578125,135.89742215770326L81.16171875,137.17606313870888L81.805859375,138.55914237118927L82.45,140.41242801813263L83.09414062500001,141.9143258426964L83.73828125,143.5647177701236L84.382421875,137.52617738676494L85.0265625,136.94890520715438L85.670703125,139.0294379123267L86.31484375000001,140.62526249364825L86.958984375,138.62062849363272L87.603125,140.46750863525895L88.24726562500001,141.3330891762147L88.89140624999999,142.62101427050231L89.535546875,141.2023672746861L90.1796875,138.5869512353054L90.82382812499999,135.83483629623262L91.46796875,137.90490512433513L92.112109375,139.08203594485065L92.75625,141.00435632010812L93.400390625,142.77868001940283L94.04453124999999,144.50831253729686L94.688671875,145.95434120152294L95.3328125,147.21150668367488L95.976953125,145.71000363328594L96.62109375,139.94461544685953L97.265234375,141.71425447548495L97.909375,136.41485141421828L98.553515625,138.71446884807725L99.19765625000001,140.48542473936752L99.841796875,141.47083367528234L100.4859375,131.08486836201268L101.130078125,133.0988420532065L101.77421875,124.60105790203167L102.41835937500001,127.81654439169368L103.0625,130.9427910105665L103.706640625,133.77853318246375L104.35078125000001,136.05413272804427L104.99492187499999,138.14641966880404L105.6390625,134.2548189197068L106.283203125,135.9517828799905L106.92734374999999,137.6560496413696L107.571484375,138.05044624958285L108.215625,139.99840861401313L108.859765625,141.98388666420888L109.50390625,143.6159402410603L110.14804687499999,145.20647537729994L110.7921875,146.41670568859774L111.436328125,147.5722875680789L112.08046875,136.53203775930888L112.724609375,138.78671285274706L113.36875,140.21854377899015L114.012890625,142.09350450744503L114.65703125,143.63715598792595L115.30117187500001,142.38250147643194L115.9453125,143.98575295347828L116.589453125,145.58355411538017L117.23359375,146.81138721168563L117.877734375,147.8058117251461L118.52187500000001,141.69822649186224L119.166015625,143.3145923098864L119.81015625,143.47500816528927L120.45429687500001,132.32456444422385L121.09843749999999,134.44685892559568L121.742578125,136.00292364394855L122.38671875,138.2220070636465L123.03085937499999,139.090806633566L123.675,130.06028588561946L124.319140625,121.67838013800039L124.96328125,125.31885546816056L125.607421875,128.71697063034162L126.25156249999999,131.87483666029092L126.895703125,134.6837284689697L127.53984375,137.17854350153817L128.183984375,139.45706446329447L128.828125,141.3417957491683L129.47226562499998,142.34111628505823L130.11640625,130.25312845024513L130.760546875,132.42769080052784L131.4046875,135.15917194126897L132.048828125,117.20719094114006L132.69296875,101.05040828916444L133.33710937499998,101.33305497690358L133.98125000000002,106.53237475495689L134.625390625,110.37101246268364L135.26953125,115.35241143040618L135.913671875,99.38110716987985L136.5578125,85.00693345272845L137.201953125,72.07017720232325L137.84609375,60.42709665393372L138.490234375,49.94832422273299L139.134375,40.51742908515573L139.77851562499998,32.02962350224398L140.42265625000002,24.390598510758686L141.066796875,18.23453855722867L141.7109375,32.57339741628078L142.355078125,45.445182848173054L142.99921875,56.399227196256874L143.643359375,66.94374209177036L144.28750000000002,70.48218041736702L144.931640625,78.25771244440234L145.57578124999998,83.98350374554056L146.219921875,91.33815342367656L146.8640625,97.49271312099205L147.508203125,101.80387933391052L148.15234375,108.1508664336678L148.796484375,113.35427981475922L149.44062499999998,117.41785185047375L150.08476562500002,120.84275417846615L150.72890625,124.43404127292544L151.373046875,126.85863715311024L152.0171875,130.2133984471105L152.661328125,132.24812110748218L153.30546875,135.0528715030396L153.949609375,138.263021859231L154.59375,140.42203217723952L155.237890625,142.1217664623013L155.88203124999998,143.97233981880086L156.52617187500002,143.8457308367527L157.1703125,145.16990775465953L157.814453125,146.64929198078437L158.45859375,147.6267377836519L159.102734375,146.0284390038946L159.746875,147.49940760465822L160.39101562500002,148.51352934490785L161.03515625,149.80236391123543L161.67929687499998,148.98212751964314L162.3234375,150.09135226824935L162.967578125,151.0896545418865L163.61171875,151.9328140880491L164.255859375,152.7580326795536L164.9,154.23085441209523L165.54414062499998,152.0053314702098L166.18828125000002,148.5752983222513L166.832421875,148.34239348996888L167.4765625,146.738904140617L168.120703125,146.501576226508L168.76484375,148.0026686041264L169.408984375,149.32046424392644L170.053125,150.5507303197125L170.697265625,151.61371978788023L171.34140625,152.60359780920865L171.98554687499998,153.4281130283751L172.62968750000002,153.46217672554084L173.273828125,152.37552155289356L173.91796875,152.68078189762778L174.562109375,152.56832870785718L175.20625,153.1640583371087L175.850390625,151.26646500329105L176.49453125000002,152.22469350301046L177.138671875,153.07603665274823L177.78281249999998,152.92405798746717L178.426953125,152.53283968870602L179.07109375,153.02149321985164L179.715234375,153.5608438978826L180.359375,154.10157200810892L181.003515625,154.36697730730444L181.64765624999998,154.1744045765698L182.29179687500002,154.3772141189168L182.9359375,155.23455520704027L183.580078125,155.3755996863385L184.22421875,154.772414717696L184.868359375,155.30261074593324L185.5125,152.99203717131314L186.156640625,152.87058345418058L186.80078125,153.7015876087703L187.444921875,154.50480384790006L188.08906249999998,155.21663596311546L188.73320312500002,155.11609736680322L189.37734375,155.71148763012658L190.021484375,156.29158886711713L190.665625,156.7362424804076L191.309765625,157.20280573236894L191.95390625,156.72665015913014L192.59804687500002,155.10336014321123L193.2421875,154.62696162888855L193.88632812499998,155.2380779660015L194.53046875,155.5557701694022L195.174609375,155.99656815246303L195.81875,157.06809883721903L196.462890625,155.68722645349445L197.10703125,156.04850380814563L197.75117187499998,156.52852842733182L198.39531250000002,156.5733630845987L199.039453125,156.91240177613926L199.68359375,157.30603659852576L200.327734375,157.5828704386735L200.971875,157.94264589480647L201.616015625,158.21113130532603L202.26015625,158.5412681747937L202.904296875,158.59501635731436L203.5484375,156.6189522215817L204.19257812499998,157.1193694994238L204.83671875000002,156.85068254948132L205.480859375,156.83011429453316L206.125,157.30941536508004L206.769140625,157.05491132857193L207.41328125,156.75948269571467L208.057421875,156.4935969261431L208.70156250000002,153.0461747335279L209.345703125,153.8817447601753L209.98984374999998,154.68907028415794L210.633984375,155.34928825574227L211.278125,152.85704693016763L211.922265625,153.67834223715099L212.56640625,153.41082051343585L213.210546875,152.50630096209215L213.85468749999998,153.38479586588304L214.49882812500002,154.17544127929483L215.14296875,154.9091471513654L215.787109375,155.55841993622892L216.43125,156.18701544260608L217.075390625,156.6863763983455L217.71953125,157.15792625851097L218.363671875,156.61988363265985L219.0078125,156.41220776939383L219.651953125,155.94873699245446L220.29609374999998,156.46086329320903L220.94023437500002,156.96602696388814L221.584375,157.36536176749934L222.228515625,157.7358255907494L222.87265625,158.0360555316745L223.516796875,157.166824978507L224.1609375,157.5239549806563L224.80507812500002,157.77899698259068L225.44921875,158.0527847843316" style="fill: none;" fill="none"></path></g></g></g></g><g opacity="0.2"><g><g><g><path stroke="rgb(255, 112, 67)" stroke-width="2px" d="M32.20703125,44.47125L32.851171875,-44.36062500000002L34.78359375,-16.814999999999994L35.427734375,113.169375L36.071875000000006,85.07062499999999L36.716015625,143.8125L37.360156249999996,40.599375L38.004296875,141.710625L38.6484375,152.88375L39.292578125,-16.04062499999999L39.93671875,101.00062499999999L40.580859375,98.12437500000001L41.225,-22.67812500000001L41.869140625,151.11375L42.51328125,125.338125L43.157421875000004,144.586875L43.8015625,115.82437499999999L44.445703124999994,-44.36062500000002L45.08984375,125.2275L45.733984375,134.52L46.378125,150.67125000000001L47.022265624999996,155.206875L47.66640625,61.28624999999999L48.310546875,47.12625L48.9546875,154.875L49.598828125000004,46.905L50.24296875,87.28312500000001L50.887109375,136.06875L51.53125,151.666875L52.175390625000006,153.54749999999999L52.81953125,120.8025L53.463671874999996,155.53875L54.1078125,156.86625L54.751953125,125.338125L55.39609375,83.63250000000001L56.040234375,157.9725L56.684375,145.80375L57.328515625,41.15250000000001L57.97265625,151.99875L58.616796875,153.879375L59.260937500000004,159.631875L59.905078125,157.198125L60.549218749999994,49.670625L61.193359375,151.7775L61.8375,151.7775L62.481640625,149.78625L63.125781249999996,129.763125L63.769921875,154.875L64.4140625,107.74875L65.058203125,146.356875L65.70234375,76.995L66.346484375,104.76187499999999L66.99062500000001,159.631875L67.634765625,153.215625L68.27890625,156.755625L68.923046875,87.28312500000001L69.5671875,156.86625L70.21132812500001,158.8575L70.85546875,15.819374999999997L71.499609375,155.870625L72.14375000000001,22.125L72.78789062499999,156.976875L73.43203125,146.356875L74.076171875,152.22L74.72031249999999,131.865L75.364453125,157.53L76.00859375,123.78937500000002L76.652734375,157.861875L77.296875,157.0875L77.94101562499999,154.65375L78.58515625,156.091875L79.229296875,156.31312499999999L79.8734375,84.51750000000001L80.517578125,150.8925L81.16171875,148.68L81.805859375,151.003125L82.45,157.0875L83.09414062500001,155.428125L83.73828125,158.415L84.382421875,83.19L85.0265625,131.754375L85.670703125,157.75125L86.31484375000001,154.985625L86.958984375,120.58125L87.603125,157.0875L88.24726562500001,149.1225L88.89140624999999,154.21125L89.535546875,128.435625L90.1796875,115.05L90.82382812499999,111.0675L91.46796875,156.534375L92.112109375,149.675625L92.75625,158.304375L93.400390625,158.746875L94.04453124999999,160.074375L94.688671875,158.96812500000001L95.3328125,158.525625L95.976953125,132.196875L96.62109375,88.0575L97.265234375,157.640625L97.909375,88.72125L98.553515625,159.410625L99.19765625000001,156.42375L99.841796875,150.339375L100.4859375,37.612500000000004L101.130078125,151.224375L101.77421875,48.121874999999996L102.41835937500001,156.755625L103.0625,159.07874999999999L103.706640625,159.3L104.35078125000001,156.534375L104.99492187499999,156.976875L105.6390625,99.23062499999999L106.283203125,151.224375L106.92734374999999,152.994375L107.571484375,141.6L108.215625,157.53L108.859765625,159.853125L109.50390625,158.304375L110.14804687499999,159.52125L110.7921875,157.30875L111.436328125,157.9725L112.08046875,37.169999999999995L112.724609375,159.07874999999999L113.36875,153.105L114.012890625,158.96812500000001L114.65703125,157.53L115.30117187500001,131.090625L115.9453125,158.415L116.589453125,159.96375L117.23359375,157.861875L117.877734375,156.755625L118.52187500000001,86.73L119.166015625,157.861875L119.81015625,144.91875L120.45429687500001,31.970625000000005L121.09843749999999,153.54749999999999L121.742578125,150.0075L122.38671875,158.19375L123.03085937499999,146.91L123.675,48.785625L124.319140625,46.241249999999994L124.96328125,158.083125L125.607421875,159.3L126.25156249999999,160.295625L126.895703125,159.96375L127.53984375,159.631875L128.183984375,159.96375L128.828125,158.304375L129.47226562499998,151.335L130.11640625,21.461249999999996L130.760546875,151.99875L131.4046875,159.7425L132.048828125,-44.36062500000002L132.69296875,-44.36062500000002L133.33710937499998,103.87687500000001L133.98125000000002,153.32625L134.625390625,144.91875L135.26953125,160.185L135.913671875,-44.36062500000002L141.066796875,-37.169999999999995L141.7109375,161.623125L142.355078125,161.29125L142.99921875,154.985625L143.643359375,161.84437499999999L144.28750000000002,102.328125L144.931640625,148.2375L145.57578124999998,135.515625L146.219921875,157.53L146.8640625,152.88375L147.508203125,140.604375L148.15234375,165.27375L148.796484375,160.185L149.44062499999998,153.99L150.08476562500002,151.666875L150.72890625,156.755625L151.373046875,148.68L152.0171875,160.40625L152.661328125,150.560625L153.30546875,160.295625L153.949609375,167.154375L154.59375,159.853125L155.237890625,157.419375L155.88203124999998,160.6275L156.52617187500002,142.70625L157.1703125,157.0875L157.814453125,159.96375L158.45859375,156.42375L159.102734375,131.64375L159.746875,160.738125L160.39101562500002,157.640625L161.03515625,161.401875L161.67929687499998,141.6L162.3234375,160.074375L162.967578125,160.074375L163.61171875,159.52125L164.255859375,160.185L164.9,167.48625L165.54414062499998,131.975625L166.18828125000002,117.70500000000001L166.832421875,146.24625L167.4765625,132.3075L168.120703125,144.365625L168.76484375,161.5125L169.408984375,161.180625L170.053125,161.623125L170.697265625,161.180625L171.34140625,161.5125L171.98554687499998,160.84875L172.62968750000002,153.76875L173.273828125,142.595625L173.91796875,155.428125L174.562109375,151.55625L175.20625,158.525625L175.850390625,134.18812499999999L176.49453125000002,160.84875L177.138671875,160.738125L177.78281249999998,151.55625L178.426953125,149.011875L179.07109375,157.419375L179.715234375,158.415L180.359375,158.96812500000001L181.003515625,156.755625L181.64765624999998,152.44125L182.29179687500002,156.20250000000001L182.9359375,162.950625L183.580078125,156.645L184.22421875,149.34375L184.868359375,160.074375L185.5125,132.196875L186.156640625,151.7775L186.80078125,161.180625L187.444921875,161.73375000000001L188.08906249999998,161.623125L188.73320312500002,154.21125L189.37734375,161.07L190.021484375,161.5125L190.665625,160.738125L191.309765625,161.401875L191.95390625,152.44125L192.59804687500002,140.49375L193.2421875,150.339375L193.88632812499998,160.738125L194.53046875,158.415L195.174609375,159.96375L195.81875,166.711875L196.462890625,143.259375L197.10703125,159.3L197.75117187499998,160.84875L198.39531250000002,156.976875L199.039453125,159.96375L199.68359375,160.84875L200.327734375,160.074375L200.971875,161.180625L201.616015625,160.6275L202.26015625,161.5125L202.904296875,159.07874999999999L203.5484375,138.834375L204.19257812499998,161.623125L204.83671875000002,154.4325L205.480859375,156.645L206.125,161.623125L206.769140625,154.764375L207.41328125,154.100625L208.057421875,154.100625L208.70156250000002,122.01937500000001L209.345703125,161.401875L209.98984374999998,161.955L210.633984375,161.29125L211.278125,130.426875L211.922265625,161.07L212.56640625,151.003125L213.210546875,144.365625L213.85468749999998,161.29125L214.49882812500002,161.29125L215.14296875,161.5125L215.787109375,161.401875L216.43125,161.84437499999999L217.075390625,161.180625L217.71953125,161.401875L218.363671875,151.7775L219.0078125,154.543125L219.651953125,151.7775L220.29609374999998,161.07L220.94023437500002,161.5125L221.584375,160.959375L222.228515625,161.07L222.87265625,160.738125L223.516796875,149.34375L224.1609375,160.738125L224.80507812500002,160.074375L225.44921875,160.516875" style="fill: none;" fill="none"></path></g></g></g></g></g></g><g transform="translate(72, 177)" clip-path="url(#clip_1)"><clipPath id="clip_1"><rect width="257" height="22"></rect></clipPath><g><g><line x1="0" y1="0" x2="0" y2="5" style="visibility: inherit;" fill="rgb(0, 0, 0)" stroke="rgb(204, 204, 204)" stroke-width="1px"></line><line x1="32.20703125" y1="0" x2="32.20703125" y2="5" style="visibility: inherit;" fill="rgb(0, 0, 0)" stroke="rgb(204, 204, 204)" stroke-width="1px"></line><line x1="64.4140625" y1="0" x2="64.4140625" y2="5" style="visibility: inherit;" fill="rgb(0, 0, 0)" stroke="rgb(204, 204, 204)" stroke-width="1px"></line><line x1="96.62109375" y1="0" x2="96.62109375" y2="5" style="visibility: inherit;" fill="rgb(0, 0, 0)" stroke="rgb(204, 204, 204)" stroke-width="1px"></line><line x1="128.828125" y1="0" x2="128.828125" y2="5" style="visibility: inherit;" fill="rgb(0, 0, 0)" stroke="rgb(204, 204, 204)" stroke-width="1px"></line><line x1="161.03515625" y1="0" x2="161.03515625" y2="5" style="visibility: inherit;" fill="rgb(0, 0, 0)" stroke="rgb(204, 204, 204)" stroke-width="1px"></line><line x1="193.2421875" y1="0" x2="193.2421875" y2="5" style="visibility: inherit;" fill="rgb(0, 0, 0)" stroke="rgb(204, 204, 204)" stroke-width="1px"></line><line x1="225.44921875" y1="0" x2="225.44921875" y2="5" style="visibility: inherit;" fill="rgb(0, 0, 0)" stroke="rgb(204, 204, 204)" stroke-width="1px"></line><line x1="257.65625" y1="0" x2="257.65625" y2="5" style="visibility: inherit;" fill="rgb(0, 0, 0)" stroke="rgb(204, 204, 204)" stroke-width="1px"></line></g><g transform="translate(0, 8)"><text x="0" y="0" dx="0em" dy="0.95em" style="text-anchor: middle; visibility: hidden; font-family: Roboto, sans-serif; font-size: 12px; font-weight: 200;" fill="rgb(33, 33, 33)" stroke="none" stroke-width="1px">-50</text><text x="32.20703125" y="0" dx="0em" dy="0.95em" style="text-anchor: middle; visibility: inherit; font-family: Roboto, sans-serif; font-size: 12px; font-weight: 200;" fill="rgb(33, 33, 33)" stroke="none" stroke-width="1px">0</text><text x="64.4140625" y="0" dx="0em" dy="0.95em" style="text-anchor: middle; visibility: inherit; font-family: Roboto, sans-serif; font-size: 12px; font-weight: 200;" fill="rgb(33, 33, 33)" stroke="none" stroke-width="1px">50</text><text x="96.62109375" y="0" dx="0em" dy="0.95em" style="text-anchor: middle; visibility: inherit; font-family: Roboto, sans-serif; font-size: 12px; font-weight: 200;" fill="rgb(33, 33, 33)" stroke="none" stroke-width="1px">100</text><text x="128.828125" y="0" dx="0em" dy="0.95em" style="text-anchor: middle; visibility: inherit; font-family: Roboto, sans-serif; font-size: 12px; font-weight: 200;" fill="rgb(33, 33, 33)" stroke="none" stroke-width="1px">150</text><text x="161.03515625" y="0" dx="0em" dy="0.95em" style="text-anchor: middle; visibility: inherit; font-family: Roboto, sans-serif; font-size: 12px; font-weight: 200;" fill="rgb(33, 33, 33)" stroke="none" stroke-width="1px">200</text><text x="193.2421875" y="0" dx="0em" dy="0.95em" style="text-anchor: middle; visibility: inherit; font-family: Roboto, sans-serif; font-size: 12px; font-weight: 200;" fill="rgb(33, 33, 33)" stroke="none" stroke-width="1px">250</text><text x="225.44921875" y="0" dx="0em" dy="0.95em" style="text-anchor: middle; visibility: inherit; font-family: Roboto, sans-serif; font-size: 12px; font-weight: 200;" fill="rgb(33, 33, 33)" stroke="none" stroke-width="1px">300</text><text x="257.65625" y="0" dx="0em" dy="0.95em" style="text-anchor: middle; visibility: hidden; font-family: Roboto, sans-serif; font-size: 12px; font-weight: 200;" fill="rgb(33, 33, 33)" stroke="none" stroke-width="1px">350</text></g><line x1="0" y1="0" x2="257.65625" y2="0" fill="rgb(0, 0, 0)" stroke="rgb(204, 204, 204)" stroke-width="1px"></line></g></g></g></g></svg>