<svg viewBox="0 0 330 200" xmlns="http://www.w3.org/2000/svg"><g><g><g><g><g><line x1="51.5625" y1="177" x2="46.5625" y2="177" style="visibility: inherit;" fill="rgb(0, 0, 0)" stroke="rgb(204, 204, 204)" stroke-width="1px"></line><line x1="51.5625" y1="160.90909090909088" x2="46.5625" y2="160.90909090909088" style="visibility: inherit;" fill="rgb(0, 0, 0)" stroke="rgb(204, 204, 204)" stroke-width="1px"></line><line x1="51.5625" y1="144.8181818181819" x2="46.5625" y2="144.8181818181819" style="visibility: inherit;" fill="rgb(0, 0, 0)" stroke="rgb(204, 204, 204)" stroke-width="1px"></line><line x1="51.5625" y1="128.72727272727278" x2="46.5625" y2="128.72727272727278" style="visibility: inherit;" fill="rgb(0, 0, 0)" stroke="rgb(204, 204, 204)" stroke-width="1px"></line><line x1="51.5625" y1="112.63636363636365" x2="46.5625" y2="112.63636363636365" style="visibility: inherit;" fill="rgb(0, 0, 0)" stroke="rgb(204, 204, 204)" stroke-width="1px"></line><line x1="51.5625" y1="96.54545454545456" x2="46.5625" y2="96.54545454545456" style="visibility: inherit;" fill="rgb(0, 0, 0)" stroke="rgb(204, 204, 204)" stroke-width="1px"></line><line x1="51.5625" y1="80.45454545454544" x2="46.5625" y2="80.45454545454544" style="visibility: inherit;" fill="rgb(0, 0, 0)" stroke="rgb(204, 204, 204)" stroke-width="1px"></line><line x1="51.5625" y1="64.36363636363635" x2="46.5625" y2="64.36363636363635" style="visibility: inherit;" fill="rgb(0, 0, 0)" stroke="rgb(204, 204, 204)" stroke-width="1px"></line><line x1="51.5625" y1="48.27272727272733" x2="46.5625" y2="48.27272727272733" style="visibility: inherit;" fill="rgb(0, 0, 0)" stroke="rgb(204, 204, 204)" stroke-width="1px"></line><line x1="51.5625" y1="32.181818181818215" x2="46.5625" y2="32.181818181818215" style="visibility: inherit;" fill="rgb(0, 0, 0)" stroke="rgb(204, 204, 204)" stroke-width="1px"></line><line x1="51.5625" y1="16.090909090909115" x2="46.5625" y2="16.090909090909115" style="visibility: inherit;" fill="rgb(0, 0, 0)" stroke="rgb(204, 204, 204)" stroke-width="1px"></line><line x1="51.5625" y1="0" x2="46.5625" y2="0" style="visibility: inherit;" fill="rgb(0, 0, 0)" stroke="rgb(204, 204, 204)" stroke-width="1px"></line></g><g transform="translate(41.5625, 0)"><text x="0" y="177" dx="0em" dy="0.3em" style="text-anchor: end; visibility: hidden; font-family: Roboto, sans-serif; font-size: 12px; font-weight: 200;" fill="rgb(33, 33, 33)" stroke="none" stroke-width="1px">0.78</text><text x="0" y="160.90909090909088" dx="0em" dy="0.3em" style="text-anchor: end; visibility: inherit; font-family: Roboto, sans-serif; font-size: 12px; font-weight: 200;" fill="rgb(33, 33, 33)" stroke="none" stroke-width="1px">0.8</text><text x="0" y="144.8181818181819" dx="0em" dy="0.3em" style="text-anchor: end; visibility: hidden; font-family: Roboto, sans-serif; font-size: 12px; font-weight: 200;" fill="rgb(33, 33, 33)" stroke="none" stroke-width="1px">0.82</text><text x="0" y="128.72727272727278" dx="0em" dy="0.3em" style="text-anchor: end; visibility: inherit; font-family: Roboto, sans-serif; font-size: 12px; font-weight: 200;" fill="rgb(33, 33, 33)" stroke="none" stroke-width="1px">0.84</text><text x="0" y="112.63636363636365" dx="0em" dy="0.3em" style="text-anchor: end; visibility: hidden; font-family: Roboto, sans-serif; font-size: 12px; font-weight: 200;" fill="rgb(33, 33, 33)" stroke="none" stroke-width="1px">0.86</text><text x="0" y="96.54545454545456" dx="0em" dy="0.3em" style="text-anchor: end; visibility: inherit; font-family: Roboto, sans-serif; font-size: 12px; font-weight: 200;" fill="rgb(33, 33, 33)" stroke="none" stroke-width="1px">0.88</text><text x="0" y="80.45454545454544" dx="0em" dy="0.3em" style="text-anchor: end; visibility: hidden; font-family: Roboto, sans-serif; font-size: 12px; font-weight: 200;" fill="rgb(33, 33, 33)" stroke="none" stroke-width="1px">0.9</text><text x="0" y="64.36363636363635" dx="0em" dy="0.3em" style="text-anchor: end; visibility: inherit; font-family: Roboto, sans-serif; font-size: 12px; font-weight: 200;" fill="rgb(33, 33, 33)" stroke="none" stroke-width="1px">0.92</text><text x="0" y="48.27272727272733" dx="0em" dy="0.3em" style="text-anchor: end; visibility: hidden; font-family: Roboto, sans-serif; font-size: 12px; font-weight: 200;" fill="rgb(33, 33, 33)" stroke="none" stroke-width="1px">0.94</text><text x="0" y="32.181818181818215" dx="0em" dy="0.3em" style="text-anchor: end; visibility: inherit; font-family: Roboto, sans-serif; font-size: 12px; font-weight: 200;" fill="rgb(33, 33, 33)" stroke="none" stroke-width="1px">0.96</text><text x="0" y="16.090909090909115" dx="0em" dy="0.3em" style="text-anchor: end; visibility: hidden; font-family: Roboto, sans-serif; font-size: 12px; font-weight: 200;" fill="rgb(33, 33, 33)" stroke="none" stroke-width="1px">0.98</text><text x="0" y="0" dx="0em" dy="0.3em" style="text-anchor: end; visibility: hidden; font-family: Roboto, sans-serif; font-size: 12px; font-weight: 200;" fill="rgb(33, 33, 33)" stroke="none" stroke-width="1px">1</text></g><line x1="51.5625" y1="0" x2="51.5625" y2="177" fill="rgb(0, 0, 0)" stroke="rgb(204, 204, 204)" stroke-width="1px"></line></g></g><g transform="translate(51, 0)" clip-path="url(#clip_0)"><clipPath id="clip_0"><rect width="278" height="176"></rect></clipPath><g><g><g><line x1="0" y1="0" x2="0" y2="177" fill="rgb(0, 0, 0)" stroke="rgb(66, 66, 66)" stroke-width="1px" opacity="0.25"></line><line x1="34.8046875" y1="0" x2="34.8046875" y2="177" fill="rgb(0, 0, 0)" stroke="rgb(66, 66, 66)" stroke-width="1px" opacity="0.25"></line><line x1="69.609375" y1="0" x2="69.609375" y2="177" fill="rgb(0, 0, 0)" stroke="rgb(66, 66, 66)" stroke-width="1px" opacity="0.25"></line><line x1="104.4140625" y1="0" x2="104.4140625" y2="177" fill="rgb(0, 0, 0)" stroke="rgb(66, 66, 66)" stroke-width="1px" opacity="0.25"></line><line x1="139.21875" y1="0" x2="139.21875" y2="177" fill="rgb(0, 0, 0)" stroke="rgb(66, 66, 66)" stroke-width="1px" opacity="0.25"></line><line x1="174.0234375" y1="0" x2="174.0234375" y2="177" fill="rgb(0, 0, 0)" stroke="rgb(66, 66, 66)" stroke-width="1px" opacity="0.25"></line><line x1="208.828125" y1="0" x2="208.828125" y2="177" fill="rgb(0, 0, 0)" stroke="rgb(66, 66, 66)" stroke-width="1px" opacity="0.25"></line><line x1="243.6328125" y1="0" x2="243.6328125" y2="177" fill="rgb(0, 0, 0)" stroke="rgb(66, 66, 66)" stroke-width="1px" opacity="0.25"></line><line x1="278.4375" y1="0" x2="278.4375" y2="177" fill="rgb(0, 0, 0)" stroke="rgb(66, 66, 66)" stroke-width="1px" opacity="0.25"></line></g><g><line x1="0" y1="177" x2="278.4375" y2="177" fill="rgb(0, 0, 0)" stroke="rgb(66, 66, 66)" stroke-width="1px" opacity="0.25"></line><line x1="0" y1="160.90909090909088" x2="278.4375" y2="160.90909090909088" fill="rgb(0, 0, 0)" stroke="rgb(66, 66, 66)" stroke-width="1px" opacity="0.25"></line><line x1="0" y1="144.8181818181819" x2="278.4375" y2="144.8181818181819" fill="rgb(0, 0, 0)" stroke="rgb(66, 66, 66)" stroke-width="1px" opacity="0.25"></line><line x1="0" y1="128.72727272727278" x2="278.4375" y2="128.72727272727278" fill="rgb(0, 0, 0)" stroke="rgb(66, 66, 66)" stroke-width="1px" opacity="0.25"></line><line x1="0" y1="112.63636363636365" x2="278.4375" y2="112.63636363636365" fill="rgb(0, 0, 0)" stroke="rgb(66, 66, 66)" stroke-width="1px" opacity="0.25"></line><line x1="0" y1="96.54545454545456" x2="278.4375" y2="96.54545454545456" fill="rgb(0, 0, 0)" stroke="rgb(66, 66, 66)" stroke-width="1px" opacity="0.25"></line><line x1="0" y1="80.45454545454544" x2="278.4375" y2="80.45454545454544" fill="rgb(0, 0, 0)" stroke="rgb(66, 66, 66)" stroke-width="1px" opacity="0.25"></line><line x1="0" y1="64.36363636363635" x2="278.4375" y2="64.36363636363635" fill="rgb(0, 0, 0)" stroke="rgb(66, 66, 66)" stroke-width="1px" opacity="0.25"></line><line x1="0" y1="48.27272727272733" x2="278.4375" y2="48.27272727272733" fill="rgb(0, 0, 0)" stroke="rgb(66, 66, 66)" stroke-width="1px" opacity="0.25"></line><line x1="0" y1="32.181818181818215" x2="278.4375" y2="32.181818181818215" fill="rgb(0, 0, 0)" stroke="rgb(66, 66, 66)" stroke-width="1px" opacity="0.25"></line><line x1="0" y1="16.090909090909115" x2="278.4375" y2="16.090909090909115" fill="rgb(0, 0, 0)" stroke="rgb(66, 66, 66)" stroke-width="1px" opacity="0.25"></line><line x1="0" y1="0" x2="278.4375" y2="0" fill="rgb(0, 0, 0)" stroke="rgb(66, 66, 66)" stroke-width="1px" opacity="0.25"></line></g></g></g><g><g><line x1="0" y1="804.5454545454546" x2="278.4375" y2="804.5454545454546" fill="rgb(0, 0, 0)" stroke="rgb(153, 153, 153)" stroke-width="1.5px"></line></g></g><g><g><line x1="34.8046875" y1="0" x2="34.8046875" y2="177" fill="rgb(0, 0, 0)" stroke="rgb(153, 153, 153)" stroke-width="1.5px"></line></g></g><g><g><g><g><g><path stroke="rgb(255, 112, 67)" stroke-width="2px" d="M34.8046875,0L35.50078125,211.72248803827756L51.5109375,177.66482351301707L52.20703125,171.90373409667245L52.903125,166.3071079592758L53.59921875,160.88620109411386L54.2953125,155.64803653343236L54.991406250000004,150.59635848422724L55.6875,145.73238341465498L56.38359375,141.05536938085635L57.0796875,136.56307271160495L57.775781249999994,132.25210527497384L58.471875,128.11822186405814L59.16796875,124.15654279528677L59.864062499999996,120.36173497258183L60.56015625,116.7281567094791L61.25625,113.24996576149236L61.952343750000004,109.92122390526427L62.6484375,106.73595458316042L63.34453125,103.68820712778903L64.040625,100.77210720594758L64.73671875000001,97.98188505091069L65.4328125,95.31190780695852L66.12890625,92.75669113488483L66.825,90.3109258572871L67.52109374999999,87.96947923930834L68.2171875,85.72741196346693L68.91328125,83.57996560495219L69.609375,81.52258615205481L70.30546875,79.55090746992451L71.0015625,77.6607564895262L71.69765625000001,75.84814890681551L72.39375,74.10928108661567L73.08984375,72.4405377128733L73.7859375,70.8384654365122L74.48203125,69.29979282233032L75.17812500000001,67.82140534258309L75.87421875000001,66.40034719613749L76.5703125,65.0338087662428L77.26640625,63.71912995269437L77.9625,62.45378413220078L78.65859375,61.23537828690914L79.3546875,60.06164364483496L80.05078125,58.93043217096187L80.74687499999999,57.83970870454889L81.44296874999999,56.78754396661109L82.1390625,55.77211313698031L82.83515625,54.79168983425257L83.53125,53.84463595222501L84.22734375,52.929406952954146L84.92343749999999,52.044532677379905L85.61953125,51.188624099282094L86.315625,50.36036503728228L87.01171875,49.55850951799157L87.7078125,48.78188422025422L88.40390625,48.02936670795012L89.10000000000001,47.299899434347516L89.79609375,46.59248317031802L90.4921875,45.906161508815586L91.18828125,45.24004050432187L91.884375,44.593263188093665L92.58046875000001,43.96501541835888L93.27656250000001,43.35453115078981L93.97265625,42.76108279857994L94.66875,42.183972561679695L95.36484375,41.62254860701588L96.0609375,41.07618126602871L96.75703125,40.54427998322251L97.453125,40.026279796681834L98.14921874999999,39.521643560536106L98.84531249999999,39.02986394688886L99.54140625,38.55045086194632L100.2375,38.08294410068558L100.93359375,37.626905554220016L101.6296875,37.18191219766337L102.32578124999999,36.74756416710013L103.021875,36.32348243823203L103.71796875,35.9093067378719L104.4140625,35.50468407374129L105.11015625,35.10928718535492L105.80625,34.722797581087086L106.50234375000001,34.34491904541123L107.1984375,33.97535622680868L107.89453125,33.61383373164093L108.590625,33.26009412659639L109.28671875,32.913876959054974L109.98281250000001,32.574947830889414L110.67890625000001,32.24307181425504L111.375,31.91802309463517L112.07109375,31.599593649645875L112.7671875,31.28758187803987L113.46328125,30.981787161449784L114.159375,30.68202415201787L114.85546875,30.388116449331434L115.55156249999999,30.09988611426169L116.24765624999999,29.81716820892048L116.94375,29.539804700702327L117.63984375,29.267643771459074L118.3359375,29.00053440031702L119.03203125,28.738335874682484L119.72812499999999,28.480911963732456L120.42421875,28.228130470063604L121.1203125,27.979862826197582L121.81640625,27.735988526927617L122.5125,27.4963895274981L123.20859375,27.260954792928697L123.90468750000001,27.029574801472343L124.60078125,26.802141393213937L125.296875,26.5785524292875L125.99296875,26.358711189707865L126.6890625,26.142525831426973L127.38515625000001,25.929899309655912L128.08125,25.720749079870767L128.77734375,25.514986465875353L129.47343750000002,25.31252686387295L130.16953125,25.113289335197482L130.865625,24.91720103524118L131.56171874999998,24.724182017625555L132.2578125,24.534160330760688L132.95390625,24.34707121834633L133.65,24.162842013430662L134.34609375,23.981407315860007L135.04218749999998,23.802703470120814L135.73828125,23.62666839086563L136.434375,23.45324140588702L137.13046875,23.282363114795274L137.8265625,23.11398005729503L138.52265625,22.948034528238566L139.21875,22.784479388501765L139.91484375,22.623257826515008L140.6109375,22.46431871189989L141.30703125,22.307616027345702L142.003125,22.15309876636906L142.69921875,22.51645889227087L143.39531250000002,23.339506709649232L144.09140624999998,24.060789738547587L144.7875,24.690729028799733L145.48359374999998,25.23870352480635L146.1796875,25.713139889771785L146.87578125,26.618254840104992L147.571875,27.905120454696203L148.26796875,29.529797514984814L148.9640625,31.452851020855462L149.66015625,33.63889017766951L150.35625000000002,36.056163975562455L151.05234375,38.67619721084405L151.74843750000002,41.473453314352845L152.44453124999998,43.95177607844113L153.140625,46.143519203716075L153.83671875,48.077791429395006L154.5328125,49.78078582498614L155.22890625,51.27606176639117L155.925,52.584817896247294L156.62109375,53.72612819729282L157.3171875,54.717149662926055L158.01328125,55.57331879163019L158.709375,56.30851884102183L159.40546875,56.93524474288408L160.1015625,57.46472275390524L160.79765625000002,57.90706130052305L161.49374999999998,58.27134837556524L162.18984375,58.56575358161655L162.88593749999998,58.79762956098005L163.58203125,58.97358410077932L164.278125,59.09955941394598L164.97421875,59.180898696640796L165.6703125,59.222406029934675L166.36640625,59.228395495853704L167.0625,59.20274976821539L167.75859375000002,59.148953662521194L168.4546875,59.07013871725383L169.15078125000002,58.969123317044485L169.84687499999998,58.848434417129944L170.54296875,58.71034627722073L171.2390625,58.55689134466168L171.93515625,58.389908412990664L172.63125,58.21103800999698L173.32734375,58.021751815226246L174.0234375,57.823374340268394L174.71953125,57.61709285008953L175.415625,57.40397108769443L176.11171875,57.18496642178697L176.8078125,56.96092609780675L177.50390625,56.73261743211371L178.20000000000002,56.50072621396742L178.89609374999998,56.26586485823676L179.5921875,56.02857974283893L180.28828124999998,55.78935781243491L180.984375,55.54863731721965L181.68046875,55.30680788690393L182.3765625,55.06422018822741L183.07265625,54.821180230326824L183.76875,54.57796342142499L184.46484375,54.3348128334578L185.16093750000002,54.09194723116815L185.85703125,53.84955870735953L186.55312500000002,53.60781535009068L187.24921874999998,53.36686843861452L187.9453125,53.12684932879401L188.64140625,52.88787624090586L189.3375,52.650045982269845L190.03359375,52.41345047493862L190.7296875,52.17816765329477L191.42578125,51.94426286281821L192.121875,51.711790118976225L192.81796875,51.4808028311537L193.5140625,51.25133947686829L194.21015625,51.02343948135011L194.90625,50.79712873637732L195.60234375000002,50.57243054455034L196.29843749999998,50.34936587820923L196.99453125,50.127948816995605L197.69062499999998,49.90819203258703L198.38671875,49.690102134028756L199.0828125,49.47368027399659L199.77890625,49.258932285363635L200.475,49.04585862225102L201.17109375,48.834454897903164L201.8671875,48.62471716424001L202.56328125000002,48.416641867989654L203.259375,48.210221015742654L203.95546875000002,48.00544261796576L204.65156249999998,47.802300679544004L205.34765625,47.60078500940905L206.04375,47.400881640134955L206.73984375,47.20258279650268L207.4359375,47.00587188988636L208.13203125,46.81073878598696L208.828125,46.617169568470864L209.52421875,46.425151712637835L210.2203125,46.234664355328405L210.91640625,46.04569831062817L211.6125,45.8582405157497L212.30859375,45.67227441871983L213.00468750000002,45.487785122762595L213.70078124999998,45.30475922077927L214.396875,45.12317985091702L215.09296874999998,44.94303183750788L215.7890625,44.764296726986196L216.48515625,44.58696270660745L217.18125,44.41101914490185L217.87734375,44.23644688261685L218.5734375,44.06322867642556L219.26953125,43.89135380279832L219.96562500000002,43.720807815093764L220.66171875,43.55157771133456L221.35781250000002,43.38364699427692L222.05390624999998,43.21700081640074L222.75,43.05162581493861L223.44609375,42.88750516793499L224.1421875,42.72462853109424L224.83828125,42.56298179908616L225.534375,42.402552277113294L226.23046875,42.24332374439331L226.9265625,42.08528639768687L227.62265625,41.92842661861359L228.31875,41.77272735516715L229.01484375,41.6181828514707L229.7109375,41.46477833630563L230.40703125000002,41.312495720111045L231.10312499999998,41.16132831321118L231.79921875,41.01126529943299L232.49531249999998,40.86229214875667L233.19140625,40.71439578416373L233.8875,40.56756923180273L234.58359375,40.42179662427793L235.2796875,40.27706847639766L235.97578125,40.13337625148952L236.671875,39.99070267561918L237.36796875000002,39.84904179317479L238.0640625,39.70838344864129L238.76015625000002,39.568713706590565L239.45624999999998,39.43002482060154L240.15234375,39.29230502343113L240.8484375,39.15554372456004L241.54453125,39.01973139252155L242.240625,38.884859448994895L242.93671875,38.75092017349185L243.6328125,38.61790182210831" style="fill: none;" fill="none"></path></g></g></g></g><g opacity="0.2"><g><g><g><path stroke="rgb(255, 112, 67)" stroke-width="2px" d="M34.8046875,0L35.50078125,402.2727272727273L43.1578125,185.6643245978789L43.85390625,172.40261110392487L44.550000000000004,160.90908131816172L45.24609375,150.85227272727275L45.9421875,141.97860116308388L46.638281250000006,134.09092507579112L47.334375,127.03348777510904L48.03046875,160.90908131816172L48.7265625,153.24674411253497L49.422656249999996,146.28099609505048L50.11875,139.92096321149307L50.81484375,134.09092507579112L51.5109375,128.72729382731697L52.20703125,123.77621639858594L52.903125,119.1918961026452L53.59921875,114.93505808440125L54.2953125,110.97179840911521L54.991406250000004,107.27272087877448L55.6875,103.8123136216944L56.38359375,100.56818181818183L57.0796875,97.52066406336701L57.775781249999994,94.65240077538925L58.471875,91.94804646752097L59.16796875,89.3939340656454L59.864062499999996,86.97788308967243L60.56015625,84.68900783495471L61.25625,82.51747759905729L61.952343750000004,80.45456463640387L62.6484375,78.49226052110846L63.34453125,76.62337205626748L64.040625,74.84142536466773L64.73671875000001,73.14047407020222L65.4328125,71.51514725251633L66.12890625,69.96045762842353L66.825,68.47194541584363L67.52109374999999,67.04543856057255L68.2171875,65.67719660022043L68.91328125,64.36362293633549L69.609375,63.10160051692616L70.30546875,61.88810819929297L71.0015625,60.72041256861254L71.69765625000001,59.595972028645605L72.39375,58.512388847090996L73.08984375,57.46755301952362L73.7859375,56.45930658687245L74.48203125,55.48587522723459L75.17812500000001,54.54543666406113L75.87421875000001,53.636360439387246L76.5703125,52.75706404989417L77.26640625,51.90615681084721L77.9625,51.08224803751166L78.65859375,50.28409090909092L79.3546875,49.510486559434376L80.05078125,48.760332031683504L80.74687499999999,48.03257232362575L81.44296874999999,47.32620038769461L82.1390625,46.640305085615694L82.83515625,45.974023233760484L83.53125,45.32649164850063L84.22734375,44.69699101014572L84.92343749999999,44.08470608971335L85.61953125,43.488965522159226L86.315625,42.909097942439004L87.01171875,42.34447994015433L87.7078125,41.794584014199L88.40390625,41.25873879952866L89.10000000000001,40.73646474968303L89.79609375,40.227282318201944L90.4921875,39.73061604933306L91.18828125,39.24613026055424L91.884375,38.77329745075919L92.58046875000001,38.31168602813374L93.27656250000001,37.860960310155704L93.97265625,37.420736659656875L94.66875,36.99058348482306L95.36484375,36.57026101242412L96.0609375,36.15933765064586L96.75703125,35.75757362625815L97.453125,35.36463325673885L98.14921874999999,34.980228814211756L98.84531249999999,34.6041205254468L99.54140625,34.23597270792182L100.2375,33.87559354305267L100.93359375,33.52274325760928L101.6296875,33.17713412371549L102.32578124999999,32.838574322787196L103.021875,32.506872036240324L103.71796875,32.18183544549075L104.4140625,31.863176822662354L105.11015625,31.55080025846309L105.80625,31.244465979662802L106.50234375000001,30.944078076969497L107.1984375,30.649348822506997L107.89453125,30.36018230698325L108.590625,30.07648262110624L109.28671875,29.797962036999795L109.98281250000001,29.524620554663915L110.67890625000001,29.25621840086851L111.375,28.99261171167548L112.07109375,28.73375253243881L112.7671875,28.479496999220427L113.46328125,28.229653293436236L114.159375,27.984173460440214L114.85546875,27.74296159094031L115.55156249999999,27.50582586635243L116.24765624999999,27.272718332030554L116.94375,27.043543078682642L117.63984375,26.818204197016623L118.3359375,26.59655782309446L119.03203125,26.378556002270095L119.72812499999999,26.164102825251486L120.42421875,25.953102382746604L121.1203125,25.745458765463408L121.81640625,25.54112401875582L122.5125,25.340002233331866L123.20859375,25.14204545454546L123.90468750000001,24.947157773104575L124.60078125,24.755243279717188L125.296875,24.566254019737244L125.99296875,24.38014203851874L126.6890625,24.196859381415624L127.38515625000001,24.016262184489854L128.08125,23.838398402387455L128.77734375,23.663124171170328L129.47343750000002,23.490391536192472L130.16953125,23.320152542807836L130.865625,23.152407191016454L131.56171874999998,22.987011616880253L132.2578125,22.82396582039919L132.95390625,22.663269801573332L133.65,22.50477969646454L134.34609375,22.34849550507285L135.04218749999998,22.194369272752247L135.73828125,22.042353044856675L136.434375,21.892398866740134L137.13046875,21.744458783756606L137.8265625,21.598532795906067L138.52265625,21.454524993896484L139.21875,21.312483332373876L139.91484375,21.172263947400186L140.6109375,21.033866838975392L141.30703125,20.8972920070995L142.003125,20.76244354248047L142.69921875,25.7866997610439L143.39531250000002,30.746936527165506L144.09140624999998,30.55233657360077L144.7875,30.36018230698325L145.48359374999998,30.17047372731295L146.1796875,29.983066970651812L146.87578125,34.764289043166414L147.571875,39.48691053823992L148.26796875,44.151890548792764L148.9640625,48.760332031683504L149.66015625,53.31324203447863L150.35625000000002,57.81162760474466L151.05234375,62.256495790048085L151.74843750000002,66.64875772866337L152.44453124999998,66.25668054277247L153.140625,65.86920700289987L153.83671875,65.48624119975351L154.5328125,65.10773517868738L155.22890625,64.73354507576336L155.925,64.36362293633549L156.62109375,63.99792080575771L157.3171875,63.63634277473796L158.01328125,63.27884088863026L158.709375,62.92531923814255L159.40546875,62.5757778232748L160.1015625,62.23002482544292L160.79765625000002,61.88810819929297L161.49374999999998,61.549932035532876L162.18984375,61.21540042487058L162.88593749999998,60.884513367306106L163.58203125,60.5571749535474L164.278125,60.23333722894843L164.97421875,59.91295223886318L165.6703125,59.595972028645605L166.36640625,59.28230068900369L167.0625,58.971938219937414L167.75859375000002,58.66478871215474L168.4546875,58.36080421100963L169.15078125000002,58.059984716502115L169.84687499999998,57.7622343193401L170.54296875,57.46755301952362L171.2390625,57.1757969531146L171.93515625,56.88706202940508L172.63125,56.601204384456985L173.32734375,56.31817606362431L174.0234375,56.03797706690702L174.71953125,55.76055943965912L175.415625,55.48587522723459L176.11171875,55.213924429633416L176.8078125,54.94456318291752L177.50390625,54.67783944173294L178.20000000000002,54.41370525143365L178.89609374999998,54.152112657373614L179.5921875,53.893013704906814L180.28828124999998,53.636360439387246L180.984375,53.382152860814884L181.68046875,53.13034301454372L182.3765625,52.88093090057373L183.07265625,52.633820609612904L183.76875,52.389012141661226L184.46484375,52.146457542072646L185.16093750000002,51.90615681084721L185.85703125,51.66806199333886L186.55312500000002,51.43212513490158L187.24921874999998,51.19834623553537L187.9453125,50.96667734059422L188.64140625,50.7371184500781L189.3375,50.509573654695L190.03359375,50.28409090909092L190.7296875,50.060622258619844L191.42578125,49.83911974863573L192.121875,49.61953542449258L192.81796875,49.4019172408364L193.5140625,49.186169288375154L194.21015625,48.97233952175487L194.90625,48.760332031683504L195.60234375000002,48.55014681816101L196.29843749999998,48.34178388118744L196.99453125,48.135195266116746L197.69062499999998,47.93038097294895L198.38671875,47.727293047038L199.0828125,47.52588353373788L199.77890625,47.32620038769461L200.475,47.12819565426219L201.17109375,46.931821378794595L201.8671875,46.737077561291784L202.56328125000002,46.5439642017538L203.259375,46.35243334553458L203.95546875000002,46.16243703798815L204.65156249999998,45.974023233760484L205.34765625,45.787143978205606L206.04375,45.60175131667744L206.73984375,45.41789320382206L207.4359375,45.23547373034738L208.13203125,45.05454085089944L208.828125,44.875046610832214L209.52421875,44.69699101014572L210.2203125,44.520278139547884L210.91640625,44.34500390833075L211.6125,44.17112036184832L212.30859375,43.99857954545456L213.00468750000002,43.82738145914945L213.70078124999998,43.65752610293302L214.396875,43.488965522159226L215.09296874999998,43.32169971682809L215.7890625,43.15568073229357L216.48515625,42.99095652320169L217.18125,42.82752708955246L217.87734375,42.66529652205381L218.5734375,42.504264820705764L219.26953125,42.34447994015433L219.96562500000002,42.18589392575352L220.66171875,42.02850677750327L221.35781250000002,41.87227054075762L222.05390624999998,41.71718521551653L222.75,41.56325080178L223.44609375,41.41041934490204L224.1421875,41.25873879952866L224.83828125,41.108161211013794L225.534375,40.9586865793575L226.23046875,40.810266949913725L226.9265625,40.66295027732849L227.62265625,40.51668860695578L228.31875,40.37143398414958L229.01484375,40.227282318201944L229.7109375,40.08413769982077L230.40703125000002,39.94195217436011L231.10312499999998,39.80082165111195L231.79921875,39.6606981754303L232.49531249999998,39.52153379266913L233.19140625,39.383328502828434L233.8875,39.24613026055424L234.58359375,39.109843156554476L235.2796875,38.97451514547522L235.97578125,38.84014622731644L236.671875,38.70664049278606L237.36796875000002,38.57409385117619L238.0640625,38.44245834784075L238.76015625000002,38.31168602813374L239.45624999999998,38.181824846701204L240.15234375,38.05282684889707L240.8484375,37.924692034721375L241.54453125,37.797420404174105L242.240625,37.67101195725529L242.93671875,37.54546669396488L243.6328125,37.420736659656875" style="fill: none;" fill="none"></path></g></g></g></g></g></g><g transform="translate(51, 177)" clip-path="url(#clip_1)"><clipPath id="clip_1"><rect width="278" height="22"></rect></clipPath><g><g><line x1="0" y1="0" x2="0" y2="5" style="visibility: inherit;" fill="rgb(0, 0, 0)" stroke="rgb(204, 204, 204)" stroke-width="1px"></line><line x1="34.8046875" y1="0" x2="34.8046875" y2="5" style="visibility: inherit;" fill="rgb(0, 0, 0)" stroke="rgb(204, 204, 204)" stroke-width="1px"></line><line x1="69.609375" y1="0" x2="69.609375" y2="5" style="visibility: inherit;" fill="rgb(0, 0, 0)" stroke="rgb(204, 204, 204)" stroke-width="1px"></line><line x1="104.4140625" y1="0" x2="104.4140625" y2="5" style="visibility: inherit;" fill="rgb(0, 0, 0)" stroke="rgb(204, 204, 204)" stroke-width="1px"></line><line x1="139.21875" y1="0" x2="139.21875" y2="5" style="visibility: inherit;" fill="rgb(0, 0, 0)" stroke="rgb(204, 204, 204)" stroke-width="1px"></line><line x1="174.0234375" y1="0" x2="174.0234375" y2="5" style="visibility: inherit;" fill="rgb(0, 0, 0)" stroke="rgb(204, 204, 204)" stroke-width="1px"></line><line x1="208.828125" y1="0" x2="208.828125" y2="5" style="visibility: inherit;" fill="rgb(0, 0, 0)" stroke="rgb(204, 204, 204)" stroke-width="1px"></line><line x1="243.6328125" y1="0" x2="243.6328125" y2="5" style="visibility: inherit;" fill="rgb(0, 0, 0)" stroke="rgb(204, 204, 204)" stroke-width="1px"></line><line x1="278.4375" y1="0" x2="278.4375" y2="5" style="visibility: inherit;" fill="rgb(0, 0, 0)" stroke="rgb(204, 204, 204)" stroke-width="1px"></line></g><g transform="translate(0, 8)"><text x="0" y="0" dx="0em" dy="0.95em" style="text-anchor: middle; visibility: hidden; font-family: Roboto, sans-serif; font-size: 12px; font-weight: 200;" fill="rgb(33, 33, 33)" stroke="none" stroke-width="1px">-50</text><text x="34.8046875" y="0" dx="0em" dy="0.95em" style="text-anchor: middle; visibility: inherit; font-family: Roboto, sans-serif; font-size: 12px; font-weight: 200;" fill="rgb(33, 33, 33)" stroke="none" stroke-width="1px">0</text><text x="69.609375" y="0" dx="0em" dy="0.95em" style="text-anchor: middle; visibility: inherit; font-family: Roboto, sans-serif; font-size: 12px; font-weight: 200;" fill="rgb(33, 33, 33)" stroke="none" stroke-width="1px">50</text><text x="104.4140625" y="0" dx="0em" dy="0.95em" style="text-anchor: middle; visibility: inherit; font-family: Roboto, sans-serif; font-size: 12px; font-weight: 200;" fill="rgb(33, 33, 33)" stroke="none" stroke-width="1px">100</text><text x="139.21875" y="0" dx="0em" dy="0.95em" style="text-anchor: middle; visibility: inherit; font-family: Roboto, sans-serif; font-size: 12px; font-weight: 200;" fill="rgb(33, 33, 33)" stroke="none" stroke-width="1px">150</text><text x="174.0234375" y="0" dx="0em" dy="0.95em" style="text-anchor: middle; visibility: inherit; font-family: Roboto, sans-serif; font-size: 12px; font-weight: 200;" fill="rgb(33, 33, 33)" stroke="none" stroke-width="1px">200</text><text x="208.828125" y="0" dx="0em" dy="0.95em" style="text-anchor: middle; visibility: inherit; font-family: Roboto, sans-serif; font-size: 12px; font-weight: 200;" fill="rgb(33, 33, 33)" stroke="none" stroke-width="1px">250</text><text x="243.6328125" y="0" dx="0em" dy="0.95em" style="text-anchor: middle; visibility: inherit; font-family: Roboto, sans-serif; font-size: 12px; font-weight: 200;" fill="rgb(33, 33, 33)" stroke="none" stroke-width="1px">300</text><text x="278.4375" y="0" dx="0em" dy="0.95em" style="text-anchor: middle; visibility: hidden; font-family: Roboto, sans-serif; font-size: 12px; font-weight: 200;" fill="rgb(33, 33, 33)" stroke="none" stroke-width="1px">350</text></g><line x1="0" y1="0" x2="278.4375" y2="0" fill="rgb(0, 0, 0)" stroke="rgb(204, 204, 204)" stroke-width="1px"></line></g></g></g></g></svg>